<svg width="34" height="34" viewBox="0 0 34 34" fill="none" xmlns="http://www.w3.org/2000/svg">
<path d="M20.4471 31.49C19.6438 31.3135 18.9829 30.9435 18.3618 30.3174C17.963 29.919 17.8206 29.7255 17.6041 29.2986C17.4559 29.0083 17.3135 28.6554 17.2793 28.5245L17.2166 28.274H10.1974H3.17806L2.92737 28.1488C2.57982 27.9723 2.4032 27.6593 2.43169 27.2893C2.46018 26.9819 2.58552 26.7713 2.8704 26.5835L3.05841 26.4526H10.129H17.1995L17.3249 26.0371C17.6838 24.8645 18.698 23.8172 19.8945 23.3789C21.051 22.9577 22.2247 23.0374 23.3414 23.618C24.3214 24.1303 25.1988 25.2345 25.4609 26.2989L25.5008 26.4526H28.2242H30.9419L31.1299 26.5835C31.4148 26.7713 31.5401 26.9819 31.5686 27.2893C31.5971 27.6593 31.4205 27.9723 31.0729 28.1488C30.8222 28.274 30.8051 28.274 28.1558 28.274H25.4951L25.4324 28.5188C25.3185 28.9457 24.9367 29.6572 24.6063 30.0556C23.8029 31.0232 22.5723 31.5867 21.2903 31.5697C21.0169 31.564 20.6351 31.5298 20.4471 31.49ZM22.0766 29.6458C22.954 29.3726 23.575 28.6497 23.7346 27.7105C24.0023 26.1566 22.5837 24.7165 21.0283 24.9613C19.5925 25.1833 18.6524 26.5949 19.0227 27.9609C19.1424 28.3992 19.4614 28.9172 19.7691 29.1733C20.0198 29.3839 20.5041 29.6344 20.7776 29.697C21.1251 29.7824 21.712 29.7539 22.0766 29.6458Z" fill="#172762"/>
<path d="M11.6163 21.1021C10.1577 20.7207 9.04104 19.6677 8.59094 18.2447L8.49408 17.9203L5.7422 17.9032C3.06438 17.8861 2.99032 17.8804 2.83649 17.7666C2.53452 17.5446 2.44336 17.3625 2.44336 17.0039C2.44336 16.6453 2.53452 16.4631 2.83649 16.2412C2.99032 16.1273 3.06438 16.1216 5.7479 16.1046L8.50548 16.0875L8.59664 15.7687C8.87011 14.8352 9.61079 13.8904 10.4711 13.3667C10.6477 13.2643 11.0124 13.0992 11.2858 13.0024C11.7132 12.8544 11.8955 12.826 12.488 12.8032C13.354 12.7691 13.787 12.8601 14.5505 13.2358C15.5077 13.7025 16.3566 14.6816 16.67 15.6777L16.801 16.0932L23.9058 16.1046C30.9763 16.1216 31.0105 16.1216 31.1643 16.2412C31.4663 16.4631 31.5575 16.6453 31.5575 17.0039C31.5575 17.3625 31.4663 17.5446 31.1643 17.7666C31.0105 17.8861 30.9763 17.8861 23.9058 17.9032L16.801 17.9146L16.67 18.3358C16.3566 19.3319 15.4963 20.3223 14.5277 20.789C14.2428 20.9256 13.844 21.0793 13.6389 21.1249C13.1204 21.2501 12.1234 21.2387 11.6163 21.1021ZM13.4281 19.2864C14.8297 18.8025 15.4621 17.2031 14.7841 15.8769C14.522 15.3589 14.032 14.9491 13.4281 14.7271C13.1318 14.6189 12.9894 14.6019 12.545 14.6246C12.1006 14.6417 11.9524 14.6759 11.6277 14.8239C10.4141 15.3931 9.88996 16.8616 10.4711 18.0569C10.7503 18.6147 11.1662 18.9961 11.7986 19.2579C12.2316 19.4344 12.9552 19.4457 13.4281 19.2864Z" fill="#172762"/>
<path d="M20.618 10.8337C19.0683 10.532 17.7636 9.39933 17.3249 7.97064L17.1995 7.55513H10.129H3.05841L2.8704 7.42991C2.58552 7.23638 2.46018 7.02578 2.43169 6.71841C2.4032 6.34843 2.57982 6.03538 2.92737 5.85893L3.17806 5.7337H10.1974H17.2166L17.2793 5.48326C17.3135 5.35234 17.4616 4.99944 17.6098 4.70346C18.0485 3.8212 18.8518 3.10402 19.8432 2.69989C21.4271 2.05669 23.4839 2.59174 24.6006 3.94643C24.9652 4.38471 25.2672 4.94252 25.4039 5.40357L25.4951 5.7337H28.1615C30.8051 5.7337 30.8222 5.7337 31.0729 5.85893C31.4205 6.03538 31.5971 6.34843 31.5686 6.71841C31.5401 7.02578 31.4148 7.23638 31.1299 7.42422L30.9419 7.55513H28.2242H25.5122L25.4096 7.88526C25.1988 8.56261 24.8684 9.08627 24.3214 9.6327C23.746 10.2133 23.2047 10.5377 22.4697 10.7369C21.9171 10.8906 21.1308 10.9305 20.618 10.8337ZM21.9 9.00089C23.1135 8.72767 23.9397 7.5039 23.7346 6.29721C23.6149 5.60279 23.2503 5.0279 22.6919 4.65792C21.5809 3.91797 20.054 4.23102 19.3361 5.34665C18.5612 6.54196 19.0056 8.18694 20.2705 8.80736C20.8459 9.09196 21.2789 9.14319 21.9 9.00089Z" fill="#172762"/>
</svg>
