<svg width="34" height="34" viewBox="0 0 34 34" fill="none" xmlns="http://www.w3.org/2000/svg">
<path d="M26.2284 27.9286L18.5784 20.2786C17.9713 20.7643 17.2731 21.1488 16.4838 21.4321C15.6945 21.7155 14.8546 21.8571 13.9641 21.8571C11.7582 21.8571 9.89123 21.0932 8.36325 19.5652C6.83528 18.0372 6.07129 16.1702 6.07129 13.9643C6.07129 11.7583 6.83528 9.89137 8.36325 8.36339C9.89123 6.83542 11.7582 6.07143 13.9641 6.07143C16.1701 6.07143 18.0371 6.83542 19.565 8.36339C21.093 9.89137 21.857 11.7583 21.857 13.9643C21.857 14.8548 21.7153 15.6946 21.432 16.4839C21.1487 17.2732 20.7641 17.9714 20.2784 18.5786L27.9284 26.2286L26.2284 27.9286ZM13.9641 19.4286C15.482 19.4286 16.7722 18.8973 17.8347 17.8348C18.8972 16.7723 19.4284 15.4821 19.4284 13.9643C19.4284 12.4464 18.8972 11.1562 17.8347 10.0937C16.7722 9.03125 15.482 8.5 13.9641 8.5C12.4463 8.5 11.1561 9.03125 10.0936 10.0937C9.03111 11.1562 8.49986 12.4464 8.49986 13.9643C8.49986 15.4821 9.03111 16.7723 10.0936 17.8348C11.1561 18.8973 12.4463 19.4286 13.9641 19.4286Z" fill="#172762"/>
</svg>
