<svg width="263" height="52" viewBox="0 0 263 52" fill="none" xmlns="http://www.w3.org/2000/svg">
<g clip-path="url(#clip0_484_3748)">
<path d="M246.885 26.5405L248.706 28.1588H256.048V26.5405H246.885Z" fill="#172762"/>
<path d="M236.623 28.1588H243.484V28.067L245.096 26.5405H236.623V28.1588Z" fill="#172762"/>
<path d="M76.6545 28.172L78.4495 26.5537H69.4424V28.172H76.6545Z" fill="#172762"/>
<path d="M88.9264 26.5537H79.8542V28.172H87.1249L88.9264 26.5537Z" fill="#172762"/>
<path d="M97.5886 26.5537H90.396V28.172H97.5886V26.5537Z" fill="#172762"/>
<path d="M157.4 26.5469H150.5V28.1651H157.4V26.5469Z" fill="#172762"/>
<path d="M141.583 28.1717V27.962H139.964C138.289 28.0082 136.643 27.5122 135.269 26.5469H126.814C127.032 27.1107 127.297 27.6543 127.608 28.1717H141.583Z" fill="#172762"/>
<path d="M201.797 27.9754H196.01V28.172H209.705C209.764 27.6872 209.792 27.1993 209.79 26.711C209.79 26.6585 209.79 26.6061 209.79 26.5537H202.792C202.747 27.5692 202.48 27.9558 201.797 27.9754Z" fill="#172762"/>
<path d="M195.229 26.5469H188.342V28.1651H195.229V26.5469Z" fill="#172762"/>
<path d="M122.743 28.1717C123.056 27.651 123.33 27.108 123.563 26.5469H116C114.895 27.5169 113.479 28.0514 112.013 28.0514C110.547 28.0514 109.131 27.5169 108.027 26.5469H100.502C100.725 27.1071 100.988 27.6502 101.289 28.1717H122.743Z" fill="#172762"/>
<path d="M185.091 28.172C185.393 27.6533 185.656 27.1123 185.877 26.5537H178.347C177.241 27.5256 175.824 28.0611 174.357 28.0611C172.89 28.0611 171.472 27.5256 170.367 26.5537H162.843C163.064 27.1123 163.327 27.6533 163.63 28.172H185.091Z" fill="#172762"/>
<path d="M234.958 26.5405H228.097V28.1588H234.958V26.5405Z" fill="#172762"/>
<path d="M219.2 28.1651L220.995 26.5469H211.949V28.1651H219.2Z" fill="#172762"/>
<path d="M249.317 28.7026L251.138 30.3274H256.048V28.7026H249.317Z" fill="#172762"/>
<path d="M243.484 28.709H236.623V30.3272H243.484V28.709Z" fill="#172762"/>
<path d="M97.5886 28.7158H90.396V30.3341H97.5886V28.7158Z" fill="#172762"/>
<path d="M86.5136 28.7158H79.8542V30.3341H84.7122L86.5136 28.7158Z" fill="#172762"/>
<path d="M74.2613 30.3341L76.0562 28.7158H69.4424V30.3341H74.2613Z" fill="#172762"/>
<path d="M157.4 28.709H150.5V30.3272H157.4V28.709Z" fill="#172762"/>
<path d="M127.966 28.7158C128.373 29.2962 128.832 29.8378 129.338 30.3341H141.583V28.7158H127.966Z" fill="#172762"/>
<path d="M196.01 28.709V30.3272H209.14C209.359 29.8075 209.521 29.2647 209.621 28.709H196.01Z" fill="#172762"/>
<path d="M195.229 28.709H188.342V30.3272H195.229V28.709Z" fill="#172762"/>
<path d="M101.614 28.7158C101.99 29.2872 102.41 29.8282 102.869 30.3341H121.157C121.62 29.8315 122.04 29.2902 122.412 28.7158H101.614Z" fill="#172762"/>
<path d="M163.961 28.709C164.325 29.2807 164.734 29.8219 165.184 30.3272H183.478C183.941 29.8247 184.361 29.2833 184.733 28.709H163.961Z" fill="#172762"/>
<path d="M234.958 28.709H228.097V30.3272H234.958V28.709Z" fill="#172762"/>
<path d="M211.949 28.709V30.3272H216.794L218.596 28.709H211.949Z" fill="#172762"/>
<path d="M243.484 30.8711H236.623V32.4893H243.484V30.8711Z" fill="#172762"/>
<path d="M251.75 30.8711L253.57 32.4893H256.048V30.8711H251.75Z" fill="#172762"/>
<path d="M71.8681 32.5027L73.663 30.8779H69.4424V32.5027H71.8681Z" fill="#172762"/>
<path d="M79.8542 30.8779V32.4962H82.2995L84.1074 30.8779H79.8542Z" fill="#172762"/>
<path d="M97.5886 30.8779H90.396V32.4962H97.5886V30.8779Z" fill="#172762"/>
<path d="M157.4 30.8779H150.5V32.4962H157.4V30.8779Z" fill="#172762"/>
<path d="M129.91 30.8779C130.609 31.4979 131.372 32.0404 132.186 32.4962H141.584V30.8779H129.91Z" fill="#172762"/>
<path d="M208.873 30.8711H196.01V32.4893H207.605C207.709 32.3911 207.82 32.2928 207.924 32.1814C208.298 31.7904 208.618 31.3495 208.873 30.8711Z" fill="#172762"/>
<path d="M195.229 30.8711H188.342V32.4893H195.229V30.8711Z" fill="#172762"/>
<path d="M103.403 30.8779C104.033 31.4894 104.727 32.0318 105.471 32.4962H118.588C119.332 32.0318 120.025 31.4894 120.656 30.8779H103.403Z" fill="#172762"/>
<path d="M165.73 30.8776C166.358 31.4866 167.047 32.0289 167.785 32.4959H180.922C181.663 32.0275 182.354 31.483 182.983 30.8711L165.73 30.8776Z" fill="#172762"/>
<path d="M211.949 30.8711V32.4893H214.394L216.189 30.8711H211.949Z" fill="#172762"/>
<path d="M234.958 30.8711H228.097V32.4893H234.958V30.8711Z" fill="#172762"/>
<path d="M243.484 33.0332H236.623V34.5728H243.484V33.0332Z" fill="#172762"/>
<path d="M254.182 33.0332L256.003 34.6514H256.048V33.0332H254.182Z" fill="#172762"/>
<path d="M69.4424 33.0464V34.6646H69.4749L71.2633 33.0464H69.4424Z" fill="#172762"/>
<path d="M79.8542 33.0464V34.6646H79.8868L81.6947 33.0464H79.8542Z" fill="#172762"/>
<path d="M97.5886 33.0464H90.396V34.5795H97.5886V33.0464Z" fill="#172762"/>
<path d="M157.4 33.0396H150.5V34.3106H157.4V33.0396Z" fill="#172762"/>
<path d="M139.515 34.3106H141.584V33.0396H133.259C135.231 33.9074 137.364 34.3408 139.515 34.3106Z" fill="#172762"/>
<path d="M195.229 33.0396H188.342V34.3171H195.229V33.0396Z" fill="#172762"/>
<path d="M196.01 34.3108H202.988C204.413 34.3321 205.806 33.8835 206.955 33.0332H196.01V34.3108Z" fill="#172762"/>
<path d="M112.013 34.3957C113.962 34.3978 115.883 33.933 117.619 33.0396H106.414C108.147 33.9322 110.066 34.397 112.013 34.3957Z" fill="#172762"/>
<path d="M174.36 34.3957C176.311 34.3963 178.234 33.9316 179.972 33.0396H168.748C170.486 33.9316 172.409 34.3963 174.36 34.3957Z" fill="#172762"/>
<path d="M234.958 33.0332H228.097V34.5728H234.958V33.0332Z" fill="#172762"/>
<path d="M211.949 33.0332V34.658H211.995L213.79 33.0332H211.949Z" fill="#172762"/>
<path d="M246.573 25.6297L245.955 25.0794L245.376 25.6297H236.994V14.9965L243.113 9.41455V19.6547L253.74 9.84696H262.083L250.462 21.0436L255.463 25.6297H246.573Z" fill="#172762"/>
<path d="M90.7668 25.6299V24.2606L89.245 25.6299H80.2249V24.3065L78.7617 25.6299H69.8066V25.6037L87.6127 9.36886V17.7811L97.2246 9.3623V25.6299H90.7668Z" fill="#172762"/>
<path d="M150.87 25.6296V15.8416H144.426L150.532 10.312H164.436L158.33 15.8416H157.029V25.6296H150.87Z" fill="#172762"/>
<path d="M126.925 25.6298C126.569 24.4761 126.394 23.2737 126.405 22.0657C126.38 20.4773 126.709 18.9034 127.366 17.4593C128.023 16.0151 128.992 14.7372 130.203 13.719C132.731 11.4333 136.035 10.2137 139.431 10.3122H147.358L141.252 15.8417H140.01C138.089 15.8175 136.217 16.453 134.703 17.6434C134.023 18.1569 133.473 18.824 133.095 19.5909C132.718 20.3579 132.525 21.2033 132.531 22.0592C132.49 23.374 132.956 24.6536 133.832 25.6298H126.925Z" fill="#172762"/>
<path d="M203.124 25.63C203.096 25.2154 202.988 24.8103 202.806 24.4376C202.714 24.2504 202.573 24.0928 202.397 23.9828C202.221 23.8728 202.018 23.8147 201.811 23.8152H196.4V19.2291H201.817C202.041 19.2409 202.264 19.2016 202.47 19.1142C202.676 19.0269 202.86 18.8937 203.007 18.7247C203.262 18.3709 203.373 17.933 203.32 17.4995C203.34 17.0504 203.186 16.611 202.89 16.2744C202.762 16.1185 202.599 15.9948 202.415 15.913C202.231 15.8311 202.031 15.7934 201.83 15.8026H194.859V25.63H188.713V15.8747L194.917 10.3124H202.864C203.741 10.2938 204.612 10.4643 205.419 10.8123C206.225 11.1603 206.948 11.6778 207.54 12.3303C208.169 12.9846 208.659 13.7613 208.98 14.6129C209.301 15.4646 209.446 16.3732 209.407 17.2833C209.46 18.2032 209.234 19.1177 208.756 19.9039H208.841L208.776 20.0022V19.917C208.353 20.5466 207.806 21.0818 207.17 21.4894L206.688 21.8039L207.17 22.1184C207.767 22.5683 208.263 23.1397 208.626 23.7956C208.971 24.3559 209.203 24.9792 209.309 25.63H203.124Z" fill="#172762"/>
<path d="M117.222 25.6297C117.947 24.6563 118.388 23.4989 118.497 22.2871C118.605 21.0753 118.376 19.857 117.836 18.7688C117.296 17.6805 116.466 16.7653 115.439 16.1256C114.411 15.486 113.227 15.1471 112.02 15.1471C110.812 15.1471 109.628 15.486 108.601 16.1256C107.573 16.7653 106.743 17.6805 106.203 18.7688C105.663 19.857 105.434 21.0753 105.543 22.2871C105.651 23.4989 106.092 24.6563 106.817 25.6297H100.619C100.003 23.8037 99.8283 21.856 100.109 19.9482C100.389 18.0404 101.117 16.2275 102.232 14.6596C103.346 13.0917 104.816 11.8142 106.519 10.9329C108.222 10.0515 110.108 9.5918 112.023 9.5918C113.937 9.5918 115.824 10.0515 117.527 10.9329C119.23 11.8142 120.699 13.0917 121.814 14.6596C122.929 16.2275 123.657 18.0404 123.937 19.9482C124.217 21.856 124.042 23.8037 123.426 25.6297H117.222Z" fill="#172762"/>
<path d="M179.563 25.6297C180.385 24.5137 180.83 23.1608 180.831 21.7708C180.849 20.7258 180.619 19.6916 180.159 18.7546C179.7 17.8176 179.024 17.0049 178.189 16.3845C177.354 15.764 176.384 15.3538 175.36 15.1881C174.336 15.0223 173.287 15.1059 172.301 15.4317C171.315 15.7576 170.421 16.3163 169.694 17.0612C168.966 17.8061 168.426 18.7156 168.118 19.7138C167.81 20.7119 167.744 21.7697 167.925 22.7989C168.106 23.828 168.528 24.7986 169.158 25.6297H162.96C162.533 24.3863 162.313 23.0801 162.31 21.7643C162.305 20.0027 162.682 18.2613 163.413 16.6611C164.144 15.0609 165.213 13.6403 166.544 12.4981C167.875 11.3558 169.437 10.5193 171.122 10.0466C172.806 9.57385 174.573 9.47634 176.298 9.76078C178.024 10.0452 179.668 10.7048 181.115 11.6937C182.562 12.6826 183.778 13.9771 184.678 15.4872C185.579 16.9973 186.142 18.6868 186.329 20.4383C186.516 22.1898 186.322 23.9613 185.761 25.6297H179.563Z" fill="#172762"/>
<path d="M228.468 25.6301V19.1636L221.301 25.6301H212.32V15.1672L218.44 9.62451V19.9498L229.359 9.97175H234.587V25.6301H228.468Z" fill="#172762"/>
<path d="M261.166 10.2141L250.494 20.5001L249.922 21.0504L250.507 21.5876L254.513 25.2565H246.709L246.449 25.0272L245.948 24.5817L245.461 25.0403L245.233 25.2565H237.371V15.1605L242.749 10.2468V20.4935L243.984 19.3535L253.889 10.2141H261.173M243.49 8.57617L236.629 14.8329V25.9707H245.532L245.968 25.5514L246.436 25.9707H256.055V25.63L251.027 21.0373L263.02 9.47374H253.629L253.544 9.55236L243.484 18.8098V8.57617H243.49Z" fill="#172762"/>
<path d="M96.8538 10.1812V25.2499H91.1374V23.4351L89.9083 24.5357L89.0954 25.2564H80.5955V23.4678L79.3404 24.5881L78.5925 25.2433H70.7365L87.2419 10.1746V18.5607L88.445 17.5255L96.8343 10.1812M87.9768 8.51709L87.463 8.9888L69.4424 25.4333V26.0033H78.9047L79.8542 25.1385V26.0033H89.388L90.396 25.0926V26.0033H97.5952V8.54985L87.9768 16.9621V8.51709Z" fill="#172762"/>
<path d="M163.474 10.6858L158.193 15.4685H156.658V25.2566H151.234V15.4685H145.381L150.669 10.6858H163.467M165.418 9.93896H150.389L150.304 10.0241L143.463 16.2154H150.499V26.0035H157.38V16.2154H158.453L165.379 9.93896H165.418Z" fill="#172762"/>
<path d="M139.431 10.6856H146.396L141.122 15.4683H140.016C138.01 15.446 136.056 16.1114 134.475 17.3551C133.76 17.9109 133.18 18.6244 132.781 19.441C132.382 20.2576 132.174 21.1555 132.173 22.0657C132.147 23.1998 132.469 24.3143 133.097 25.2563H127.244C126.953 24.2161 126.811 23.1397 126.821 22.0592C126.797 20.5239 127.115 19.0027 127.751 17.6072C128.387 16.2117 129.324 14.9772 130.495 13.9942C132.948 11.7565 136.169 10.5697 139.476 10.6856M139.476 9.94527C135.991 9.83431 132.598 11.0856 130.008 13.4373C128.761 14.4926 127.764 15.8147 127.089 17.3074C126.414 18.8001 126.078 20.4257 126.106 22.0657C126.093 23.4016 126.301 24.7302 126.723 25.9967H134.748C134.158 25.5316 133.682 24.9342 133.361 24.2518C133.039 23.5695 132.88 22.821 132.895 22.0657C132.894 21.2634 133.078 20.4718 133.432 19.7533C133.787 19.0348 134.302 18.4089 134.937 17.9251C136.384 16.7917 138.171 16.1886 140.003 16.2151H141.395L148.321 9.94527H139.431H139.476Z" fill="#172762"/>
<path d="M202.903 9.93883V10.6857C203.728 10.6685 204.547 10.8291 205.305 11.1567C206.063 11.4844 206.743 11.9716 207.299 12.5857C207.903 13.2034 208.372 13.9402 208.679 14.7498C208.986 15.5594 209.123 16.4242 209.081 17.2897C209.142 18.139 208.944 18.9867 208.516 19.7204C208.121 20.3049 207.612 20.8021 207.02 21.1814L206.057 21.8365L207.026 22.4524C207.574 22.8767 208.03 23.4096 208.366 24.0182C208.609 24.4095 208.791 24.8359 208.906 25.2827H203.469C203.42 24.9277 203.31 24.5841 203.144 24.2672C203.02 24.0274 202.833 23.8263 202.604 23.6854C202.375 23.5446 202.112 23.4694 201.843 23.4679H196.797V19.5893H201.85C202.126 19.5963 202.4 19.5411 202.652 19.4277C202.904 19.3144 203.127 19.1458 203.306 18.9342C203.627 18.5119 203.773 17.9817 203.716 17.4535C203.732 16.9033 203.536 16.3681 203.17 15.9597C203.009 15.7734 202.808 15.6255 202.583 15.527C202.358 15.4284 202.114 15.3815 201.869 15.3898H194.494V25.2171H189.077V16.0449L195.054 10.6857H202.858V9.93883M202.858 9.93883H194.774L188.342 15.7239V26.0033H195.229V16.176H201.798C201.949 16.1636 202.101 16.1889 202.24 16.2494C202.38 16.3099 202.502 16.4039 202.598 16.5232C202.831 16.7922 202.95 17.1428 202.929 17.4994C202.981 17.8433 202.902 18.1942 202.708 18.4821C202.596 18.6113 202.455 18.7123 202.297 18.7771C202.139 18.8419 201.968 18.8688 201.798 18.8556H196.01V24.1951H201.798C201.943 24.1924 202.085 24.2325 202.208 24.3105C202.33 24.3885 202.427 24.501 202.487 24.6341C202.681 25.0686 202.781 25.5399 202.78 26.0164H209.751C209.686 25.1544 209.416 24.3207 208.964 23.5858C208.575 22.8818 208.04 22.2698 207.397 21.7907C208.076 21.354 208.658 20.7808 209.107 20.1069C209.6 19.2477 209.826 18.2598 209.758 17.2701C209.801 16.3148 209.651 15.3606 209.316 14.4661C208.98 13.5715 208.467 12.7555 207.807 12.0681C207.185 11.3838 206.427 10.8402 205.582 10.4731C204.737 10.106 203.824 9.92394 202.903 9.93883H202.858Z" fill="#172762"/>
<path d="M112.013 10.0044C115.112 10.013 118.081 11.2593 120.269 13.47C122.457 15.6806 123.686 18.6752 123.686 21.7972C123.686 22.9818 123.506 24.1594 123.153 25.2892H117.905C118.528 24.2327 118.856 23.0261 118.854 21.7972C118.912 20.8581 118.778 19.9171 118.461 19.0321C118.144 18.1471 117.65 17.3369 117.01 16.6514C116.371 15.9659 115.598 15.4196 114.741 15.0462C113.884 14.6728 112.96 14.4802 112.026 14.4802C111.092 14.4802 110.168 14.6728 109.311 15.0462C108.453 15.4196 107.681 15.9659 107.041 16.6514C106.402 17.3369 105.908 18.1471 105.591 19.0321C105.274 19.9171 105.14 20.8581 105.197 21.7972C105.197 23.024 105.525 24.2281 106.147 25.2827H100.899C100.543 24.1532 100.361 22.9756 100.359 21.7907C100.368 18.6687 101.605 15.6775 103.799 13.473C105.993 11.2685 108.966 10.0305 112.065 10.0306M112.065 9.29023C110.07 9.2802 108.103 9.7568 106.331 10.6793C104.559 11.6018 103.035 12.9427 101.889 14.5876C100.743 16.2324 100.01 18.1323 99.7512 20.1248C99.4927 22.1173 99.7168 24.1433 100.404 26.0296H107.656C106.829 25.1587 106.274 24.0624 106.06 22.8767C105.846 21.6909 105.983 20.468 106.453 19.3598C106.923 18.2515 107.705 17.3068 108.704 16.6428C109.702 15.9788 110.872 15.6248 112.068 15.6248C113.264 15.6248 114.434 15.9788 115.433 16.6428C116.431 17.3068 117.214 18.2515 117.684 19.3598C118.154 20.468 118.29 21.6909 118.076 22.8767C117.862 24.0624 117.308 25.1587 116.481 26.0296H123.732C124.42 24.1428 124.644 22.1162 124.385 20.1232C124.126 18.1301 123.392 16.2299 122.245 14.5849C121.099 12.9399 119.574 11.599 117.801 10.677C116.028 9.75495 114.06 9.27914 112.065 9.29023Z" fill="#172762"/>
<path d="M174.36 10.0041C177.459 10.0128 180.428 11.2591 182.616 13.4698C184.805 15.6804 186.034 18.675 186.033 21.797C186.031 22.9819 185.849 24.1595 185.494 25.289H180.252C180.787 24.3755 181.106 23.3499 181.183 22.2921C181.26 21.2343 181.094 20.1727 180.698 19.1901C180.301 18.2075 179.685 17.3304 178.897 16.6271C178.109 15.9237 177.17 15.4131 176.154 15.135C175.138 14.8569 174.072 14.8188 173.039 15.0236C172.006 15.2285 171.033 15.6708 170.198 16.3161C169.362 16.9614 168.686 17.7923 168.221 18.7441C167.756 19.6959 167.516 20.7429 167.519 21.8036C167.518 23.0303 167.846 24.2345 168.468 25.289H163.233C162.877 24.1595 162.695 22.9819 162.693 21.797C162.702 18.675 163.939 15.6839 166.133 13.4794C168.328 11.2749 171.3 10.0369 174.399 10.0369M174.399 9.29658C172.407 9.29458 170.444 9.77628 168.676 10.7009C166.908 11.6255 165.387 12.9657 164.242 14.6081C163.098 16.2505 162.363 18.1467 162.1 20.1359C161.837 22.1252 162.054 24.149 162.732 26.0359H169.983C169.16 25.1652 168.608 24.07 168.396 22.8862C168.184 21.7024 168.322 20.482 168.792 19.3763C169.262 18.2706 170.044 17.3282 171.041 16.6659C172.037 16.0037 173.205 15.6506 174.399 15.6506C175.593 15.6506 176.761 16.0037 177.758 16.6659C178.754 17.3282 179.536 18.2706 180.006 19.3763C180.477 20.482 180.614 21.7024 180.402 22.8862C180.191 24.07 179.639 25.1652 178.815 26.0359H186.066C186.754 24.1491 186.978 22.1226 186.719 20.1295C186.46 18.1365 185.726 16.2362 184.58 14.5912C183.433 12.9462 181.908 11.6054 180.135 10.6833C178.362 9.7613 176.394 9.28549 174.399 9.29658Z" fill="#172762"/>
<path d="M234.223 10.3452V25.2566H228.838V18.3447L227.616 19.4454L221.171 25.2566H212.658V15.331L218.069 10.4828V20.7884L219.304 19.6616L229.502 10.3452H234.223ZM218.804 8.79248L211.949 15.0034V26.0035H221.444L228.097 19.9957V26.0035H234.958V9.62453H229.215L218.81 19.1309V8.79248H218.804Z" fill="#172762"/>
<path d="M70.073 5.69992V0.124512H74.4497V5.69992H73.3702V1.06139H71.146V5.69992H70.073Z" fill="#172762"/>
<path d="M76.3032 5.70011V0.124702H77.916C78.1984 0.118951 78.4804 0.149777 78.755 0.216424C78.9945 0.275596 79.2171 0.389975 79.4053 0.550556C79.593 0.719236 79.7411 0.927823 79.8389 1.16123C79.9368 1.39465 79.9819 1.64705 79.9711 1.90018C79.9832 2.12795 79.9491 2.35582 79.8708 2.56985C79.7926 2.78389 79.6718 2.97959 79.5159 3.14499C79.3266 3.31788 79.1046 3.45052 78.8632 3.53495C78.6219 3.61938 78.3661 3.65387 78.1111 3.63636H77.3893V5.70011H76.3032ZM77.3893 2.69948H77.825C78.073 2.71661 78.3203 2.65719 78.5339 2.52914C78.6316 2.45154 78.7097 2.3517 78.7617 2.23781C78.8137 2.12392 78.8381 1.99923 78.833 1.87398C78.8414 1.74762 78.8177 1.6212 78.7642 1.5066C78.7108 1.39199 78.6293 1.29296 78.5274 1.21882C78.2946 1.08451 78.0275 1.02294 77.76 1.04193H77.3893V2.69948Z" fill="#172762"/>
<path d="M81.8895 5.01189C81.6153 4.73908 81.4002 4.41187 81.2581 4.05098C81.1159 3.69009 81.0497 3.30339 81.0636 2.91538C81.0501 2.52741 81.1165 2.14082 81.2586 1.77999C81.4008 1.41916 81.6156 1.09191 81.8895 0.818866C82.4757 0.292093 83.2338 0.000976562 84.0193 0.000976562C84.8049 0.000976563 85.5629 0.292093 86.1492 0.818866C86.4218 1.09285 86.6358 1.42027 86.7778 1.78087C86.9199 2.14147 86.987 2.5276 86.9751 2.91538C86.9874 3.3032 86.9205 3.68944 86.7784 4.0501C86.6363 4.41076 86.4221 4.73813 86.1492 5.01189C85.5617 5.53599 84.8041 5.82535 84.0193 5.82535C83.2346 5.82535 82.477 5.53599 81.8895 5.01189ZM82.6959 1.53299C82.5222 1.71691 82.3867 1.93393 82.2974 2.17131C82.208 2.40869 82.1666 2.66166 82.1756 2.91538C82.1665 3.16855 82.2072 3.42105 82.2954 3.65831C82.3835 3.89557 82.5175 4.11289 82.6894 4.29776C83.0441 4.64671 83.5203 4.84206 84.0161 4.84206C84.5119 4.84206 84.988 4.64671 85.3427 4.29776C85.5136 4.11267 85.6459 3.895 85.7319 3.65758C85.8179 3.42016 85.8558 3.1678 85.8435 2.91538C85.8534 2.66212 85.813 2.40942 85.7248 2.17206C85.6366 1.9347 85.5023 1.71744 85.3298 1.53299C84.9761 1.18445 84.5011 0.989282 84.0063 0.989282C83.5116 0.989282 83.0365 1.18445 82.6829 1.53299H82.6959Z" fill="#172762"/>
<path d="M88.5618 5.69992V0.124512H91.6313V1.06139H89.6413V2.31274H91.5468V3.27583H89.6413V4.76304H91.6313V5.69992H88.5618Z" fill="#172762"/>
<path d="M93.2703 5.69992V0.124512H94.3498V2.48309L96.3854 0.124512H97.7445L95.4033 2.69929L97.8681 5.69992H96.4374L94.4864 3.20376L94.3628 3.32824V5.69992H93.2703Z" fill="#172762"/>
<path d="M98.5574 1.06139V0.124512H102.102V1.06139H100.853V5.69992H99.78V1.06139H98.5574Z" fill="#172762"/>
<path d="M103.402 5.69992V0.124512H104.475V2.28654H106.817V0.124512H107.89V5.69992H106.817V3.21686H104.475V5.69992H103.402Z" fill="#172762"/>
<path d="M110.315 5.01189C110.042 4.73813 109.828 4.41076 109.686 4.0501C109.544 3.68944 109.477 3.3032 109.489 2.91538C109.478 2.5276 109.545 2.14147 109.687 1.78087C109.829 1.42027 110.043 1.09285 110.315 0.818866C110.902 0.292093 111.66 0.000976562 112.445 0.000976562C113.231 0.000976563 113.989 0.292093 114.575 0.818866C114.849 1.09191 115.064 1.41916 115.206 1.77999C115.348 2.14082 115.414 2.52741 115.401 2.91538C115.415 3.30339 115.349 3.69009 115.206 4.05098C115.064 4.41187 114.849 4.73908 114.575 5.01189C113.988 5.53599 113.23 5.82535 112.445 5.82535C111.66 5.82535 110.903 5.53599 110.315 5.01189ZM111.122 1.53299C110.949 1.71744 110.815 1.9347 110.727 2.17206C110.639 2.40942 110.598 2.66212 110.608 2.91538C110.598 3.1681 110.638 3.42033 110.725 3.65757C110.812 3.8948 110.945 4.11237 111.115 4.29776C111.471 4.64713 111.948 4.84266 112.445 4.84266C112.942 4.84266 113.419 4.64713 113.775 4.29776C113.947 4.11289 114.081 3.89557 114.169 3.65831C114.257 3.42105 114.298 3.16855 114.289 2.91538C114.298 2.66166 114.257 2.40869 114.167 2.17131C114.078 1.93393 113.942 1.71691 113.769 1.53299C113.415 1.18445 112.94 0.989282 112.445 0.989282C111.951 0.989282 111.475 1.18445 111.122 1.53299Z" fill="#172762"/>
<path d="M116.689 4.24527V3.31494H118.848V4.24527H116.689Z" fill="#172762"/>
<path d="M120.408 5.81126V0.12448H121.488V3.86544L124.538 0H125.286V5.69989H124.213V1.96548L121.156 5.83747L120.408 5.81126Z" fill="#172762"/>
<path d="M127.139 5.69992V0.124512H128.219V2.28654H130.554V0.124512H131.633V5.69992H130.554V3.21686H128.219V5.69992H127.139Z" fill="#172762"/>
<path d="M132.908 5.69992L135.1 2.69929L132.986 0.124512H134.215L136.056 2.48309V0.124512H137.064V2.48309L138.911 0.124512H140.14L138.026 2.69929L140.211 5.69992H138.969L137.22 3.20376L137.09 3.32824V5.69992H136.082V3.32824L135.919 3.20376L134.157 5.69992H132.908Z" fill="#172762"/>
<path d="M141.505 5.81126V0.12448H142.578V3.86544L145.635 0H146.383V5.69989H145.303V1.96548L142.247 5.83747L141.505 5.81126Z" fill="#172762"/>
<path d="M148.236 5.69992V0.124512H149.316V2.28654H151.65V0.124512H152.73V5.69992H151.65V3.21686H149.316V5.69992H148.236Z" fill="#172762"/>
<path d="M154.59 5.81126V0.12448H155.669V3.86544L158.719 0H159.467V5.69989H158.388V1.96548L155.338 5.83747L154.59 5.81126Z" fill="#172762"/>
<path d="M161.327 5.69974V0.124329H162.934C163.216 0.118063 163.498 0.148897 163.773 0.216052C164.001 0.278348 164.213 0.392658 164.39 0.550183C164.578 0.718863 164.726 0.927451 164.824 1.16086C164.922 1.39427 164.967 1.64667 164.956 1.89981C164.968 2.12758 164.934 2.35545 164.856 2.56948C164.778 2.78352 164.657 2.97921 164.501 3.14461C164.312 3.31751 164.09 3.45014 163.848 3.53457C163.607 3.619 163.351 3.6535 163.096 3.63598H162.4V5.69974H161.327ZM162.4 2.69911H162.843C163.091 2.71541 163.338 2.65605 163.552 2.52876C163.648 2.45084 163.726 2.35077 163.776 2.23683C163.827 2.12289 163.851 1.99838 163.844 1.8736C163.853 1.74725 163.829 1.62083 163.775 1.50623C163.722 1.39162 163.64 1.29259 163.539 1.21845C163.308 1.08467 163.043 1.02309 162.778 1.04155H162.4V2.69911Z" fill="#172762"/>
<path d="M166.348 5.81126V0.12448H167.427V3.86544L170.478 0H171.225V5.69989H170.146V1.96548L167.096 5.83747L166.348 5.81126Z" fill="#172762"/>
<path d="M173.085 5.69992V0.124512H174.158V2.28654H176.499V0.124512H177.572V5.69992H176.499V3.21686H174.158V5.69992H173.085Z" fill="#172762"/>
<path d="M179.439 5.69992V0.124512H182.372V1.06139H180.512V5.69992H179.439Z" fill="#172762"/>
<path d="M183.809 5.01189C183.535 4.73908 183.32 4.41187 183.178 4.05098C183.036 3.69009 182.969 3.30339 182.983 2.91538C182.97 2.52741 183.036 2.14082 183.178 1.77999C183.32 1.41916 183.535 1.09191 183.809 0.818866C184.395 0.292093 185.153 0.000976563 185.939 0.000976562C186.725 0.000976563 187.483 0.292093 188.069 0.818866C188.341 1.09285 188.555 1.42027 188.698 1.78087C188.84 2.14147 188.907 2.5276 188.895 2.91538C188.907 3.3032 188.84 3.68944 188.698 4.0501C188.556 4.41076 188.342 4.73813 188.069 5.01189C187.481 5.53599 186.724 5.82535 185.939 5.82535C185.154 5.82535 184.397 5.53599 183.809 5.01189ZM184.616 1.53299C184.442 1.71691 184.306 1.93393 184.217 2.17131C184.128 2.40869 184.086 2.66166 184.095 2.91538C184.085 3.16871 184.125 3.42162 184.213 3.65908C184.301 3.89655 184.436 4.11374 184.609 4.29776C184.964 4.64671 185.44 4.84206 185.936 4.84206C186.432 4.84206 186.908 4.64671 187.262 4.29776C187.436 4.11374 187.57 3.89655 187.659 3.65908C187.747 3.42162 187.787 3.16871 187.776 2.91538C187.79 2.66437 187.755 2.41301 187.673 2.17576C187.59 1.93851 187.462 1.72006 187.295 1.53299C186.941 1.18445 186.466 0.989282 185.972 0.989282C185.477 0.989282 185.002 1.18445 184.648 1.53299H184.616Z" fill="#172762"/>
<path d="M190.482 5.69994V0.124534H191.847C192.323 0.087585 192.797 0.212142 193.194 0.47832C193.366 0.614109 193.503 0.789857 193.594 0.990615C193.685 1.19137 193.726 1.4112 193.714 1.6314C193.723 1.85769 193.666 2.08165 193.55 2.27595C193.435 2.47024 193.266 2.62645 193.064 2.72552C193.391 2.77124 193.689 2.94099 193.897 3.20023C194.105 3.45947 194.207 3.78872 194.182 4.12101C194.193 4.3283 194.16 4.53562 194.085 4.72892C194.01 4.92222 193.894 5.09698 193.746 5.24133C193.35 5.56246 192.849 5.7236 192.342 5.69339L190.482 5.69994ZM191.561 2.42414H192.016L192.225 2.37828C192.309 2.35734 192.389 2.31946 192.459 2.26691C192.531 2.20946 192.589 2.13533 192.628 2.0507C192.682 1.94317 192.709 1.82391 192.706 1.70347C192.714 1.60231 192.697 1.50062 192.656 1.40785C192.615 1.31508 192.552 1.23422 192.472 1.17279C192.297 1.04857 192.087 0.986343 191.873 0.995896H191.561V2.42414ZM191.561 4.80237H192.023C192.279 4.81666 192.534 4.76479 192.764 4.65169C192.88 4.58939 192.973 4.49355 193.034 4.37668C193.094 4.2598 193.118 4.12732 193.103 3.99653C193.112 3.85763 193.078 3.71925 193.004 3.60144C192.93 3.48364 192.821 3.39254 192.693 3.34137C192.455 3.26996 192.205 3.24768 191.958 3.27585H191.561V4.80237Z" fill="#172762"/>
<path d="M195.19 5.69989L197.59 0H198.403L200.731 5.69333H199.567L199.085 4.5206H196.848L196.361 5.69333L195.19 5.69989ZM197.193 3.64269H198.767L197.986 1.6379L197.193 3.64269Z" fill="#172762"/>
<path d="M201.453 5.70004L203.091 3.4463C202.873 3.41358 202.665 3.32817 202.487 3.19734C202.274 3.04561 202.103 2.8424 201.99 2.60649C201.876 2.37059 201.823 2.10961 201.836 1.84771C201.824 1.60205 201.867 1.3568 201.962 1.13003C202.056 0.903256 202.2 0.700739 202.383 0.53739C202.786 0.227387 203.288 0.0760023 203.794 0.111536H205.4V5.70004H204.321V3.54457H204.126L202.74 5.70004H201.453ZM202.974 1.84771C202.974 2.41115 203.326 2.69286 204.034 2.69286H204.347V1.0091H204.015C203.931 1.00211 203.846 1.00211 203.761 1.0091C203.649 1.02818 203.538 1.05667 203.43 1.09428C203.295 1.1446 203.179 1.23624 203.098 1.35634C203.006 1.50284 202.963 1.67488 202.974 1.84771Z" fill="#172762"/>
<path d="M212.346 5.69992V0.124512H213.419V2.48309L215.454 0.124512H216.813L214.472 2.69929L216.937 5.69992H215.513L213.562 3.20376L213.432 3.32824V5.69992H212.346Z" fill="#172762"/>
<path d="M218.771 5.01189C218.498 4.73813 218.284 4.41076 218.142 4.0501C218 3.68944 217.933 3.3032 217.945 2.91538C217.933 2.5276 218 2.14147 218.142 1.78087C218.284 1.42027 218.498 1.09285 218.771 0.818866C219.357 0.292093 220.115 0.000976562 220.901 0.000976562C221.686 0.000976563 222.444 0.292093 223.031 0.818866C223.305 1.09191 223.519 1.41916 223.661 1.77999C223.804 2.14082 223.87 2.52741 223.857 2.91538C223.875 3.30103 223.814 3.6863 223.677 4.04706C223.541 4.40782 223.332 4.73629 223.063 5.01189C222.476 5.53599 221.718 5.82535 220.933 5.82535C220.149 5.82535 219.391 5.53599 218.803 5.01189H218.771ZM219.577 1.53299C219.405 1.71744 219.271 1.9347 219.182 2.17206C219.094 2.40942 219.054 2.66212 219.064 2.91538C219.054 3.1681 219.093 3.42033 219.18 3.65757C219.267 3.8948 219.4 4.11237 219.571 4.29776C219.927 4.64713 220.404 4.84266 220.901 4.84266C221.398 4.84266 221.875 4.64713 222.231 4.29776C222.403 4.11289 222.537 3.89557 222.625 3.65831C222.713 3.42105 222.754 3.16855 222.744 2.91538C222.753 2.66166 222.712 2.40869 222.623 2.17131C222.533 1.93393 222.398 1.71691 222.224 1.53299C221.871 1.18445 221.396 0.989282 220.901 0.989282C220.406 0.989282 219.931 1.18445 219.577 1.53299Z" fill="#172762"/>
<path d="M225.164 5.69989L226.198 0H226.965L228.467 3.64269L230.009 0H230.756L231.686 5.67368H230.587L230.093 2.24064L228.578 5.74575H228.266L226.815 2.24064L226.25 5.67368L225.164 5.69989Z" fill="#172762"/>
<path d="M233.26 5.69992V0.124512H237.637V5.69992H236.557V1.06139H234.333V5.69992H233.26Z" fill="#172762"/>
<path d="M238.879 5.69989L241.272 0H242.085L244.413 5.69333H243.249L242.762 4.5206H240.531L240.043 5.69333L238.879 5.69989ZM240.882 3.64269H242.456L241.676 1.6379L240.882 3.64269Z" fill="#172762"/>
<path d="M245.662 5.69992V0.124512H246.742V2.28654H249.076V0.124512H250.156V5.69992H249.076V3.21686H246.742V5.69992H245.662Z" fill="#172762"/>
<path d="M252.016 5.81126V0.12448H253.095V3.86544L256.152 0H256.88V5.69989H255.807V1.96548L252.751 5.83747L252.016 5.81126Z" fill="#172762"/>
<path d="M258.227 5.70004L259.865 3.4463C259.647 3.41358 259.439 3.32817 259.261 3.19734C259.048 3.04561 258.877 2.8424 258.764 2.60649C258.65 2.37059 258.597 2.10961 258.61 1.84771C258.598 1.60205 258.641 1.3568 258.736 1.13003C258.83 0.903256 258.974 0.700739 259.157 0.53739C259.56 0.227387 260.062 0.0760023 260.568 0.111536H262.174V5.70004H261.095V3.54457H260.899L259.514 5.70004H258.227ZM259.748 1.84771C259.748 2.41115 260.1 2.69286 260.808 2.69286H261.121V1.0091H260.782C260.698 1.00237 260.613 1.00237 260.529 1.0091C260.416 1.02818 260.305 1.05667 260.197 1.09428C260.062 1.1446 259.946 1.23624 259.865 1.35634C259.776 1.5036 259.735 1.67558 259.748 1.84771Z" fill="#172762"/>
<path d="M40.3791 51.5216L40.4441 51.4561H40.3401L40.3791 51.5216Z" fill="#172762"/>
<path d="M64.0056 26.5405H63.999V26.5472L64.0056 26.5405Z" fill="#172762"/>
<path d="M0.507324 26.5405L2.0356 28.1653H25.8117L25.4735 27.6215H47.4481L47.1945 28.1653H62.4643L63.9991 26.5405" fill="#172762"/>
<path d="M2.54272 28.709L4.071 30.3338H27.1577L26.8195 29.79H46.427L46.1669 30.3338H60.4156L61.9504 28.709" fill="#172762"/>
<path d="M4.57837 30.8779L6.10664 32.5027H28.5105L28.1723 31.9589H45.3996L45.146 32.5027H58.3672L59.9019 30.8779" fill="#172762"/>
<path d="M6.61401 33.0396L8.13579 34.6643H29.8633L29.5251 34.1271H44.3787L44.1185 34.6643H56.3187L57.8535 33.0396" fill="#172762"/>
<path d="M8.64941 35.208L10.1712 36.8328H31.2159L30.8777 36.289H43.351L43.0974 36.8328H54.2701L55.8048 35.208" fill="#172762"/>
<path d="M10.6851 37.377L12.2068 39.0017H32.5687L32.2305 38.458H42.3301L42.07 39.0017H52.2216L53.7564 37.377" fill="#172762"/>
<path d="M12.7141 39.5391L14.2424 41.1704H33.9214L33.5832 40.6266H41.3026L41.049 41.1704H50.1731L51.7079 39.5391" fill="#172762"/>
<path d="M24.7061 41.7075H14.7495L16.2778 43.3323H35.2739L34.9358 42.7885H40.2815L40.0669 43.2471H48.209L49.6592 41.7075" fill="#172762"/>
<path d="M16.7852 43.876L18.3134 45.5008H36.6202L36.2886 44.957H46.5898L47.6108 43.876" fill="#172762"/>
<path d="M18.8206 46.0444L20.3488 47.6692H37.9728L37.6346 47.1254H44.5411L45.5621 46.0444" fill="#172762"/>
<path d="M20.8562 48.2065L22.378 49.8313H39.3256L38.9874 49.2941H42.4927L43.5137 48.2065" fill="#172762"/>
<path d="M22.8916 50.375L24.4134 51.9998H39.9303L40.379 51.5215L40.34 51.456H40.444L41.465 50.375" fill="#172762"/>
<path d="M0.858398 25.6299L24.5759 0.373535H40.0083L24.2508 25.6299H0.858398Z" fill="#172762"/>
<path d="M48.4495 25.6299L40.6455 9.12646H48.0593L63.6607 25.6299H48.4495Z" fill="#172762"/>
<path d="M39.345 0.74033L24.0622 25.2564H1.71037L24.7125 0.74033H39.345ZM40.6456 0H24.3874L0 26.0033H24.4589L40.6781 0H40.6456Z" fill="#172762"/>
<path d="M47.9034 9.49981L62.8024 25.2236H48.6838L41.231 9.49981H47.9034ZM48.2155 8.75293H40.0669L48.2155 26.0033H64.5193L48.2155 8.75293Z" fill="#172762"/>
</g>
<defs>
<clipPath id="clip0_484_3748">
<rect width="263" height="52" fill="white"/>
</clipPath>
</defs>
</svg>
