<svg width="286" height="56" viewBox="0 0 286 56" fill="none" xmlns="http://www.w3.org/2000/svg">
<path d="M267.537 28.5342L269.51 30.274H277.466V28.5342H267.537Z" fill="#172762"/>
<path d="M256.416 30.274H263.851V30.1754L265.599 28.5342H256.416V30.274Z" fill="#172762"/>
<path d="M83.0664 30.2881L85.0115 28.5483H75.251V30.2881H83.0664Z" fill="#172762"/>
<path d="M96.3647 28.5483H86.5337V30.2881H94.4126L96.3647 28.5483Z" fill="#172762"/>
<path d="M105.752 28.5483H97.9575V30.2881H105.752V28.5483Z" fill="#172762"/>
<path d="M170.566 28.5413H163.088V30.2811H170.566V28.5413Z" fill="#172762"/>
<path d="M153.427 30.2881V30.0627H151.672C149.857 30.1123 148.074 29.5791 146.584 28.5413H137.422C137.658 29.1474 137.945 29.7319 138.282 30.2881H153.427Z" fill="#172762"/>
<path d="M218.678 30.0768H212.406V30.2881H227.247C227.311 29.767 227.342 29.2423 227.339 28.7174C227.339 28.661 227.339 28.6047 227.339 28.5483H219.756C219.707 29.6401 219.418 30.0557 218.678 30.0768Z" fill="#172762"/>
<path d="M211.56 28.5413H204.097V30.2811H211.56V28.5413Z" fill="#172762"/>
<path d="M133.01 30.2881C133.349 29.7284 133.646 29.1445 133.898 28.5413H125.702C124.505 29.5842 122.971 30.1588 121.382 30.1588C119.794 30.1588 118.26 29.5842 117.062 28.5413H108.909C109.15 29.1436 109.435 29.7275 109.761 30.2881H133.01Z" fill="#172762"/>
<path d="M200.573 30.2881C200.901 29.7305 201.186 29.1489 201.426 28.5483H193.265C192.067 29.5932 190.531 30.1689 188.942 30.1689C187.352 30.1689 185.816 29.5932 184.618 28.5483H176.464C176.704 29.1489 176.989 29.7305 177.317 30.2881H200.573Z" fill="#172762"/>
<path d="M254.612 28.5342H247.177V30.274H254.612V28.5342Z" fill="#172762"/>
<path d="M237.536 30.2811L239.482 28.5413H229.679V30.2811H237.536Z" fill="#172762"/>
<path d="M270.172 30.8586L272.146 32.6055H277.466V30.8586H270.172Z" fill="#172762"/>
<path d="M263.851 30.8657H256.416V32.6055H263.851V30.8657Z" fill="#172762"/>
<path d="M105.752 30.8727H97.9575V32.6125H105.752V30.8727Z" fill="#172762"/>
<path d="M93.7501 30.8727H86.5337V32.6125H91.798L93.7501 30.8727Z" fill="#172762"/>
<path d="M80.473 32.6125L82.4181 30.8727H75.251V32.6125H80.473Z" fill="#172762"/>
<path d="M170.566 30.8657H163.088V32.6055H170.566V30.8657Z" fill="#172762"/>
<path d="M138.67 30.8727C139.112 31.4966 139.609 32.079 140.157 32.6125H153.427V30.8727H138.67Z" fill="#172762"/>
<path d="M212.406 30.8657V32.6055H226.634C226.872 32.0467 227.047 31.4632 227.156 30.8657H212.406Z" fill="#172762"/>
<path d="M211.56 30.8657H204.097V32.6055H211.56V30.8657Z" fill="#172762"/>
<path d="M110.114 30.8727C110.521 31.487 110.976 32.0686 111.474 32.6125H131.291C131.793 32.0722 132.248 31.4902 132.651 30.8727H110.114Z" fill="#172762"/>
<path d="M177.676 30.8657C178.07 31.4804 178.513 32.0622 179.001 32.6055H198.825C199.327 32.0652 199.782 31.4832 200.185 30.8657H177.676Z" fill="#172762"/>
<path d="M254.612 30.8657H247.177V32.6055H254.612V30.8657Z" fill="#172762"/>
<path d="M229.679 30.8657V32.6055H234.929L236.881 30.8657H229.679Z" fill="#172762"/>
<path d="M263.851 33.1902H256.416V34.93H263.851V33.1902Z" fill="#172762"/>
<path d="M272.808 33.1902L274.781 34.93H277.466V33.1902H272.808Z" fill="#172762"/>
<path d="M77.8796 34.944L79.8247 33.1972H75.251V34.944H77.8796Z" fill="#172762"/>
<path d="M86.5337 33.1972V34.937H89.1835L91.1426 33.1972H86.5337Z" fill="#172762"/>
<path d="M105.752 33.1972H97.9575V34.937H105.752V33.1972Z" fill="#172762"/>
<path d="M170.566 33.1972H163.088V34.937H170.566V33.1972Z" fill="#172762"/>
<path d="M140.777 33.1972C141.534 33.8637 142.361 34.447 143.243 34.937H153.427V33.1972H140.777Z" fill="#172762"/>
<path d="M226.345 33.1902H212.406V34.93H224.971C225.084 34.8243 225.204 34.7186 225.316 34.5989C225.722 34.1785 226.068 33.7045 226.345 33.1902Z" fill="#172762"/>
<path d="M211.56 33.1902H204.097V34.93H211.56V33.1902Z" fill="#172762"/>
<path d="M112.052 33.1972C112.735 33.8545 113.486 34.4377 114.293 34.937H128.507C129.314 34.4377 130.065 33.8545 130.748 33.1972H112.052Z" fill="#172762"/>
<path d="M179.593 33.1972C180.274 33.8519 181.02 34.435 181.82 34.937H196.056C196.859 34.4334 197.607 33.848 198.29 33.1902L179.593 33.1972Z" fill="#172762"/>
<path d="M229.679 33.1902V34.93H232.329L234.274 33.1902H229.679Z" fill="#172762"/>
<path d="M254.612 33.1902H247.177V34.93H254.612V33.1902Z" fill="#172762"/>
<path d="M263.851 35.5146H256.416V37.1698H263.851V35.5146Z" fill="#172762"/>
<path d="M275.444 35.5146L277.417 37.2544H277.466V35.5146H275.444Z" fill="#172762"/>
<path d="M75.251 35.5286V37.2684H75.2862L77.2242 35.5286H75.251Z" fill="#172762"/>
<path d="M86.5337 35.5286V37.2684H86.5689L88.5281 35.5286H86.5337Z" fill="#172762"/>
<path d="M105.752 35.5286H97.9575V37.1769H105.752V35.5286Z" fill="#172762"/>
<path d="M170.566 35.5216H163.088V36.8881H170.566V35.5216Z" fill="#172762"/>
<path d="M151.186 36.8881H153.427V35.5216H144.406C146.543 36.4547 148.854 36.9206 151.186 36.8881Z" fill="#172762"/>
<path d="M211.56 35.5216H204.097V36.8951H211.56V35.5216Z" fill="#172762"/>
<path d="M212.406 36.8881H219.968C221.512 36.911 223.022 36.4287 224.266 35.5146H212.406V36.8881Z" fill="#172762"/>
<path d="M121.383 36.9797C123.495 36.9819 125.577 36.4821 127.457 35.5216H115.315C117.193 36.4813 119.273 36.981 121.383 36.9797Z" fill="#172762"/>
<path d="M188.945 36.9797C191.059 36.9803 193.143 36.4807 195.027 35.5216H182.863C184.747 36.4807 186.831 36.9803 188.945 36.9797Z" fill="#172762"/>
<path d="M254.612 35.5146H247.177V37.1698H254.612V35.5146Z" fill="#172762"/>
<path d="M229.679 35.5146V37.2614H229.728L231.673 35.5146H229.679Z" fill="#172762"/>
<path d="M267.198 27.5551L266.529 26.9634L265.901 27.5551H256.817V16.1231L263.449 10.1218V21.1312L274.964 10.5867H284.006L271.412 22.6245L276.832 27.5551H267.198Z" fill="#172762"/>
<path d="M98.359 27.5551V26.083L96.7099 27.5551H86.9353V26.1323L85.3496 27.5551H75.6455V27.527L94.941 10.0726V19.1167L105.357 10.0655V27.5551H98.359Z" fill="#172762"/>
<path d="M163.49 27.5551V17.0317H156.506L163.124 11.0868H178.191L171.573 17.0317H170.164V27.5551H163.49Z" fill="#172762"/>
<path d="M137.542 27.5551C137.157 26.3147 136.967 25.022 136.978 23.7233C136.952 22.0155 137.308 20.3234 138.02 18.7708C138.732 17.2182 139.782 15.8443 141.094 14.7496C143.834 12.2922 147.414 10.9809 151.094 11.0868H159.685L153.067 17.0317H151.721C149.64 17.0057 147.612 17.6889 145.971 18.9688C145.234 19.5209 144.638 20.238 144.229 21.0626C143.82 21.8871 143.61 22.796 143.617 23.7162C143.573 25.1298 144.078 26.5056 145.026 27.5551H137.542Z" fill="#172762"/>
<path d="M220.115 27.5552C220.085 27.1094 219.968 26.6739 219.77 26.2732C219.671 26.0719 219.517 25.9025 219.327 25.7842C219.136 25.6659 218.916 25.6035 218.692 25.604H212.828V20.6734H218.699C218.941 20.6861 219.183 20.6438 219.406 20.5499C219.629 20.456 219.828 20.3128 219.989 20.1311C220.264 19.7507 220.385 19.2799 220.327 18.8139C220.349 18.3311 220.182 17.8587 219.862 17.4967C219.722 17.3292 219.546 17.1962 219.347 17.1082C219.148 17.0202 218.931 16.9796 218.713 16.9895H211.158V27.5552H204.499V17.067L211.222 11.0869H219.833C220.784 11.0669 221.728 11.2502 222.602 11.6243C223.475 11.9985 224.259 12.5549 224.9 13.2564C225.582 13.9598 226.113 14.7948 226.461 15.7105C226.809 16.6261 226.966 17.603 226.923 18.5814C226.981 19.5705 226.735 20.5537 226.218 21.3989H226.31L226.239 21.5046V21.413C225.781 22.0898 225.189 22.6653 224.499 23.1035L223.977 23.4416L224.499 23.7797C225.146 24.2634 225.684 24.8778 226.077 25.5829C226.451 26.1853 226.703 26.8555 226.817 27.5552H220.115Z" fill="#172762"/>
<path d="M127.027 27.5551C127.812 26.5086 128.291 25.2643 128.408 23.9614C128.526 22.6586 128.278 21.3488 127.693 20.1788C127.107 19.0088 126.208 18.0248 125.094 17.3371C123.981 16.6494 122.698 16.2851 121.389 16.2851C120.081 16.2851 118.798 16.6494 117.684 17.3371C116.571 18.0248 115.671 19.0088 115.086 20.1788C114.501 21.3488 114.253 22.6586 114.371 23.9614C114.488 25.2643 114.966 26.5086 115.752 27.5551H109.035C108.368 25.5919 108.178 23.498 108.482 21.4469C108.786 19.3958 109.575 17.4466 110.783 15.761C111.991 14.0753 113.583 12.7018 115.429 11.7543C117.274 10.8067 119.318 10.3125 121.393 10.3125C123.467 10.3125 125.512 10.8067 127.357 11.7543C129.203 12.7018 130.795 14.0753 132.003 15.761C133.211 17.4466 134 19.3958 134.304 21.4469C134.608 23.498 134.418 25.5919 133.75 27.5551H127.027Z" fill="#172762"/>
<path d="M194.583 27.5552C195.474 26.3554 195.956 24.9008 195.957 23.4064C195.977 22.2829 195.727 21.171 195.229 20.1636C194.731 19.1562 193.999 18.2825 193.094 17.6154C192.19 16.9484 191.138 16.5073 190.028 16.3291C188.918 16.1509 187.782 16.2408 186.714 16.5911C185.645 16.9414 184.677 17.5421 183.888 18.343C183.099 19.1439 182.514 20.1217 182.181 21.1948C181.847 22.2679 181.775 23.4052 181.971 24.5117C182.167 25.6181 182.625 26.6617 183.307 27.5552H176.591C176.128 26.2183 175.89 24.814 175.886 23.3993C175.882 21.5054 176.29 19.6332 177.082 17.9128C177.875 16.1924 179.032 14.6652 180.475 13.4371C181.917 12.209 183.61 11.3096 185.436 10.8014C187.261 10.2932 189.175 10.1884 191.045 10.4942C192.915 10.8 194.696 11.5091 196.264 12.5723C197.833 13.6355 199.15 15.0272 200.126 16.6507C201.102 18.2743 201.712 20.0907 201.915 21.9738C202.117 23.8569 201.907 25.7614 201.299 27.5552H194.583Z" fill="#172762"/>
<path d="M247.579 27.5551V20.6029L239.812 27.5551H230.08V16.3063L236.712 10.3473V21.4482L248.544 10.7206H254.21V27.5551H247.579Z" fill="#172762"/>
<path d="M283.012 10.9812L271.448 22.0399L270.828 22.6315L271.462 23.2091L275.803 27.1536H267.346L267.064 26.9071L266.522 26.4281L265.993 26.9212L265.746 27.1536H257.226V16.2992L263.054 11.0164V22.0328L264.393 20.8072L275.126 10.9812H283.019M263.858 9.22025L256.423 15.947V27.9214H266.071L266.543 27.4706L267.05 27.9214H277.473V27.5551L272.026 22.6174L285.021 10.1852H274.845L274.753 10.2698L263.851 20.2226V9.22025H263.858Z" fill="#172762"/>
<path d="M104.955 10.9459V27.1465H98.7608V25.1954L97.4288 26.3788L96.5479 27.1536H87.3371V25.2306L85.977 26.4351L85.1665 27.1395H76.6534L94.5394 10.9389V19.9549L95.8432 18.842L104.934 10.9459M95.3358 9.15683L94.7791 9.66398L75.251 27.3438V27.9566H85.5048L86.5337 27.0268V27.9566H96.8651L97.9574 26.9775V27.9566H105.759V9.19205L95.3358 18.2362V9.15683Z" fill="#172762"/>
<path d="M177.148 11.4884L171.426 16.6303H169.762V27.1536H163.885V16.6303H157.542L163.272 11.4884H177.141M179.255 10.6854H162.969L162.877 10.7769L155.463 17.4333H163.089V27.9566H170.545V17.4333H171.707L179.213 10.6854H179.255Z" fill="#172762"/>
<path d="M151.094 11.4883H158.642L152.926 16.6302H151.728C149.555 16.6063 147.437 17.3216 145.724 18.6588C144.949 19.2563 144.32 20.0235 143.888 20.9014C143.456 21.7794 143.23 22.7447 143.229 23.7233C143.201 24.9425 143.55 26.1408 144.23 27.1536H137.887C137.573 26.0352 137.419 24.8779 137.429 23.7162C137.404 22.0656 137.748 20.4302 138.437 18.9299C139.126 17.4296 140.142 16.1023 141.411 15.0454C144.069 12.6397 147.56 11.3637 151.143 11.4883M151.143 10.6924C147.366 10.5731 143.69 11.9183 140.882 14.4467C139.532 15.5812 138.451 17.0027 137.72 18.6075C136.988 20.2123 136.624 21.96 136.654 23.7233C136.64 25.1595 136.866 26.5879 137.324 27.9495H146.02C145.38 27.4495 144.865 26.8072 144.516 26.0736C144.167 25.34 143.995 24.5353 144.011 23.7233C144.01 22.8607 144.21 22.0096 144.594 21.2371C144.978 20.4646 145.536 19.7918 146.224 19.2716C147.792 18.0531 149.728 17.4047 151.714 17.4332H153.222L160.728 10.6924H151.094H151.143Z" fill="#172762"/>
<path d="M219.876 10.6854V11.4884C220.769 11.4698 221.657 11.6425 222.479 11.9948C223.3 12.3471 224.037 12.8709 224.64 13.5311C225.293 14.1952 225.802 14.9873 226.135 15.8578C226.467 16.7282 226.615 17.6579 226.571 18.5885C226.636 19.5015 226.422 20.4129 225.957 21.2017C225.53 21.8302 224.978 22.3647 224.337 22.7725L223.294 23.4768L224.344 24.1389C224.937 24.5951 225.432 25.168 225.795 25.8224C226.058 26.2431 226.256 26.7015 226.38 27.1818H220.489C220.436 26.8002 220.316 26.4308 220.136 26.0901C220.002 25.8323 219.799 25.616 219.551 25.4646C219.303 25.3132 219.018 25.2323 218.727 25.2307H213.258V21.0608H218.734C219.033 21.0683 219.33 21.0089 219.603 20.8871C219.876 20.7652 220.118 20.5839 220.313 20.3564C220.659 19.9024 220.818 19.3325 220.757 18.7646C220.774 18.173 220.562 17.5977 220.165 17.1586C219.99 16.9582 219.773 16.7993 219.529 16.6933C219.285 16.5873 219.021 16.5369 218.755 16.5458H210.763V27.1114H204.893V17.2502L211.37 11.4884H219.826V10.6854M219.826 10.6854H211.066L204.097 16.905V27.9566H211.56V17.391H218.678C218.842 17.3778 219.006 17.4049 219.157 17.47C219.309 17.5351 219.441 17.6361 219.544 17.7643C219.797 18.0536 219.926 18.4305 219.904 18.8139C219.96 19.1836 219.874 19.5609 219.664 19.8704C219.542 20.0093 219.39 20.1179 219.218 20.1876C219.047 20.2573 218.862 20.2861 218.678 20.2719H212.405V26.0126H218.678C218.835 26.0096 218.989 26.0528 219.122 26.1367C219.255 26.2205 219.36 26.3415 219.425 26.4845C219.635 26.9517 219.743 27.4584 219.742 27.9707H227.296C227.226 27.0439 226.933 26.1477 226.444 25.3575C226.021 24.6007 225.442 23.9427 224.745 23.4275C225.481 22.958 226.112 22.3418 226.599 21.6173C227.132 20.6935 227.378 19.6315 227.303 18.5673C227.351 17.5403 227.188 16.5144 226.824 15.5527C226.461 14.591 225.904 13.7136 225.189 12.9746C224.516 12.2389 223.694 11.6544 222.778 11.2598C221.862 10.8652 220.873 10.6694 219.876 10.6854H219.826Z" fill="#172762"/>
<path d="M121.383 10.7558C124.741 10.7651 127.958 12.1051 130.33 14.4818C132.701 16.8585 134.033 20.078 134.033 23.4346C134.033 24.7081 133.838 25.9742 133.455 27.1889H127.768C128.443 26.0529 128.798 24.7558 128.796 23.4346C128.859 22.4249 128.714 21.4132 128.37 20.4617C128.026 19.5103 127.492 18.6392 126.798 17.9022C126.105 17.1652 125.268 16.5779 124.339 16.1764C123.41 15.775 122.409 15.5678 121.397 15.5678C120.385 15.5678 119.383 15.775 118.454 16.1764C117.525 16.5779 116.689 17.1652 115.995 17.9022C115.302 18.6392 114.767 19.5103 114.424 20.4617C114.08 21.4132 113.935 22.4249 113.997 23.4346C113.996 24.7535 114.352 26.0481 115.026 27.1818H109.339C108.954 25.9675 108.756 24.7014 108.754 23.4275C108.763 20.071 110.104 16.8552 112.482 14.4851C114.86 12.1149 118.081 10.784 121.439 10.784M121.439 9.98806C119.278 9.97728 117.146 10.4897 115.225 11.4815C113.305 12.4732 111.654 13.9149 110.412 15.6833C109.17 17.4518 108.375 19.4943 108.095 21.6365C107.815 23.7787 108.058 25.9569 108.803 27.9848H116.661C115.765 27.0486 115.164 25.8699 114.932 24.5951C114.7 23.3203 114.848 22.0055 115.357 20.814C115.867 19.6225 116.715 18.6068 117.797 17.8929C118.879 17.1791 120.146 16.7985 121.443 16.7985C122.739 16.7985 124.007 17.1791 125.089 17.8929C126.17 18.6068 127.019 19.6225 127.528 20.814C128.037 22.0055 128.185 23.3203 127.953 24.5951C127.722 25.8699 127.12 27.0486 126.224 27.9848H134.082C134.827 25.9563 135.07 23.7775 134.79 21.6348C134.509 19.492 133.714 17.449 132.471 15.6804C131.229 13.9119 129.576 12.4703 127.655 11.479C125.734 10.4877 123.601 9.97614 121.439 9.98806Z" fill="#172762"/>
<path d="M188.945 10.7558C192.303 10.7652 195.521 12.1051 197.892 14.4818C200.264 16.8585 201.595 20.0781 201.595 23.4346C201.593 24.7085 201.395 25.9745 201.01 27.1889H195.33C195.91 26.2068 196.255 25.1041 196.339 23.9668C196.423 22.8295 196.243 21.6883 195.813 20.6319C195.383 19.5755 194.715 18.6325 193.861 17.8763C193.007 17.1201 191.99 16.5711 190.889 16.2721C189.788 15.9731 188.633 15.9321 187.513 16.1524C186.394 16.3726 185.34 16.8481 184.435 17.5419C183.529 18.2357 182.796 19.129 182.293 20.1523C181.789 21.1756 181.529 22.3012 181.531 23.4416C181.531 24.7605 181.886 26.0551 182.56 27.1889H176.887C176.502 25.9745 176.305 24.7085 176.302 23.4346C176.312 20.0781 177.652 16.8622 180.03 14.4921C182.408 12.122 185.629 10.791 188.988 10.7911M188.988 9.99511C186.829 9.99296 184.701 10.5108 182.786 11.5049C180.87 12.499 179.222 13.9399 177.981 15.7057C176.741 17.4714 175.944 19.51 175.659 21.6487C175.375 23.7874 175.61 25.9632 176.345 27.9919H184.202C183.31 27.0557 182.712 25.8783 182.482 24.6056C182.252 23.3328 182.402 22.0208 182.911 20.832C183.421 19.6432 184.268 18.63 185.348 17.918C186.428 17.206 187.694 16.8265 188.988 16.8265C190.281 16.8265 191.547 17.206 192.627 17.918C193.707 18.63 194.554 19.6432 195.064 20.832C195.573 22.0208 195.723 23.3328 195.493 24.6056C195.264 25.8783 194.665 27.0557 193.773 27.9919H201.63C202.376 25.9633 202.619 23.7846 202.338 21.6418C202.058 19.4991 201.262 17.4561 200.02 15.6875C198.777 13.9189 197.125 12.4773 195.204 11.486C193.282 10.4947 191.15 9.98319 188.988 9.99511Z" fill="#172762"/>
<path d="M253.816 11.1221V27.1537H247.981V19.7225L246.656 20.9059L239.672 27.1537H230.447V16.4824L236.31 11.27V22.3498L237.649 21.1383L248.699 11.1221H253.816ZM237.107 9.45273L229.679 16.1302V27.9566H239.968L247.177 21.4975V27.9566H254.612V10.3473H248.389L237.114 20.5678V9.45273H237.107Z" fill="#172762"/>
<path d="M43.7566 55.392L43.8271 55.3216H43.7144L43.7566 55.392Z" fill="#172762"/>
<path d="M69.3597 28.5342H69.3525V28.5414L69.3597 28.5342Z" fill="#172762"/>
<path d="M0.549805 28.5342L2.20592 30.2811H27.9709L27.6044 29.6964H51.4172L51.1424 30.2811H67.6895L69.3526 28.5342" fill="#172762"/>
<path d="M2.75537 30.8657L4.41149 32.6125H29.4294L29.063 32.0279H50.3106L50.0287 32.6125H65.4693L67.1325 30.8657" fill="#172762"/>
<path d="M4.96143 33.1972L6.61754 34.944H30.8955L30.529 34.3594H49.1973L48.9225 34.944H63.2497L64.9128 33.1972" fill="#172762"/>
<path d="M7.16699 35.5216L8.81606 37.2685H32.3611L31.9946 36.6909H48.0907L47.8088 37.2685H61.0295L62.6927 35.5216" fill="#172762"/>
<path d="M9.37305 37.8531L11.0221 39.5999H33.8272L33.4607 39.0153H46.9775L46.7026 39.5999H58.8099L60.473 37.8531" fill="#172762"/>
<path d="M11.5786 40.1846L13.2277 41.9314H35.2928L34.9263 41.3468H45.8708L45.5889 41.9314H56.5897L58.2529 40.1846" fill="#172762"/>
<path d="M13.7778 42.509L15.4339 44.2629H36.7591L36.3926 43.6782H44.7578L44.4829 44.2629H54.3703L56.0335 42.509" fill="#172762"/>
<path d="M26.7728 44.8404H15.9834L17.6395 46.5873H38.2247L37.8582 46.0026H43.6511L43.4186 46.4957H52.2418L53.8133 44.8404" fill="#172762"/>
<path d="M18.1895 47.172L19.8456 48.9188H39.6837L39.3243 48.3342H50.4872L51.5937 47.172" fill="#172762"/>
<path d="M20.395 49.5034L22.0511 51.2503H41.1493L40.7829 50.6656H48.2671L49.3735 49.5034" fill="#172762"/>
<path d="M22.6006 51.8279L24.2497 53.5747H42.6149L42.2485 52.9971H46.047L47.1534 51.8279" fill="#172762"/>
<path d="M24.8066 54.1593L26.4557 55.9062H43.2706L43.7568 55.392L43.7146 55.3216H43.8273L44.9337 54.1593" fill="#172762"/>
<path d="M0.930176 27.5551L26.6317 0.401459H43.3549L26.2793 27.5551H0.930176Z" fill="#172762"/>
<path d="M52.5022 27.5551L44.0454 9.81189H52.0793L68.9858 27.5551H52.5022Z" fill="#172762"/>
<path d="M42.6362 0.795943L26.075 27.1536H1.85344L26.7798 0.795943H42.6362ZM44.0456 0H26.4274L0 27.9566H26.5049L44.0809 0H44.0456Z" fill="#172762"/>
<path d="M51.9105 10.2134L68.0558 27.1184H52.7561L44.6799 10.2134H51.9105ZM52.2487 9.41046H43.4185L52.2487 27.9566H69.9163L52.2487 9.41046Z" fill="#172762"/>
</svg>
