<svg width="335" height="66" viewBox="0 0 335 66" fill="none" xmlns="http://www.w3.org/2000/svg">
<path d="M314.385 33.5309L316.704 35.5753H326.054V33.5309H314.385Z" fill="#F5F5F5"/>
<path d="M301.317 35.5753H310.054V35.4594L312.108 33.5309H301.317V35.5753Z" fill="#F5F5F5"/>
<path d="M97.6125 35.5919L99.8982 33.5474H88.4285V35.5919H97.6125Z" fill="#F5F5F5"/>
<path d="M113.24 33.5474H101.687V35.5919H110.946L113.24 33.5474Z" fill="#F5F5F5"/>
<path d="M124.27 33.5474H115.111V35.5919H124.27V33.5474Z" fill="#F5F5F5"/>
<path d="M200.434 33.5391H191.647V35.5836H200.434V33.5391Z" fill="#F5F5F5"/>
<path d="M180.294 35.5919V35.327H178.231C176.098 35.3853 174.003 34.7587 172.252 33.5391H161.487C161.763 34.2514 162.101 34.9382 162.497 35.5919H180.294Z" fill="#F5F5F5"/>
<path d="M256.971 35.3436H249.6V35.5919H267.041C267.116 34.9795 267.152 34.363 267.149 33.7461C267.149 33.6799 267.149 33.6136 267.149 33.5474H258.238C258.18 34.8304 257.84 35.3187 256.971 35.3436Z" fill="#F5F5F5"/>
<path d="M248.607 33.5391H239.837V35.5836H248.607V33.5391Z" fill="#F5F5F5"/>
<path d="M156.303 35.5919C156.7 34.9341 157.049 34.248 157.346 33.5391H147.715C146.308 34.7647 144.505 35.4399 142.638 35.4399C140.772 35.4399 138.969 34.7647 137.562 33.5391H127.98C128.264 34.247 128.598 34.933 128.982 35.5919H156.303Z" fill="#F5F5F5"/>
<path d="M235.696 35.5919C236.081 34.9366 236.416 34.2532 236.698 33.5474H227.108C225.701 34.7752 223.896 35.4518 222.028 35.4518C220.159 35.4518 218.355 34.7752 216.947 33.5474H207.365C207.648 34.2532 207.982 34.9366 208.368 35.5919H235.696Z" fill="#F5F5F5"/>
<path d="M299.198 33.5309H290.461V35.5753H299.198V33.5309Z" fill="#F5F5F5"/>
<path d="M279.132 35.5836L281.417 33.5391H269.898V35.5836H279.132Z" fill="#F5F5F5"/>
<path d="M317.483 36.2623L319.801 38.315H326.054V36.2623H317.483Z" fill="#F5F5F5"/>
<path d="M310.054 36.2706H301.317V38.315H310.054V36.2706Z" fill="#F5F5F5"/>
<path d="M124.27 36.2788H115.111V38.3233H124.27V36.2788Z" fill="#F5F5F5"/>
<path d="M110.167 36.2788H101.687V38.3233H107.873L110.167 36.2788Z" fill="#F5F5F5"/>
<path d="M94.565 38.3233L96.8506 36.2788H88.4285V38.3233H94.565Z" fill="#F5F5F5"/>
<path d="M200.434 36.2706H191.647V38.315H200.434V36.2706Z" fill="#F5F5F5"/>
<path d="M162.952 36.2788C163.471 37.012 164.056 37.6963 164.7 38.3233H180.294V36.2788H162.952Z" fill="#F5F5F5"/>
<path d="M249.6 36.2706V38.315H266.32C266.6 37.6584 266.806 36.9727 266.933 36.2706H249.6Z" fill="#F5F5F5"/>
<path d="M248.607 36.2706H239.837V38.315H248.607V36.2706Z" fill="#F5F5F5"/>
<path d="M129.396 36.2788C129.875 37.0007 130.41 37.6842 130.995 38.3233H154.282C154.872 37.6884 155.407 37.0045 155.88 36.2788H129.396Z" fill="#F5F5F5"/>
<path d="M208.79 36.2706C209.253 36.9929 209.773 37.6766 210.347 38.315H233.642C234.232 37.6801 234.767 36.9962 235.24 36.2706H208.79Z" fill="#F5F5F5"/>
<path d="M299.198 36.2706H290.461V38.315H299.198V36.2706Z" fill="#F5F5F5"/>
<path d="M269.898 36.2706V38.315H276.068L278.362 36.2706H269.898Z" fill="#F5F5F5"/>
<path d="M310.054 39.0021H301.317V41.0466H310.054V39.0021Z" fill="#F5F5F5"/>
<path d="M320.58 39.0021L322.899 41.0466H326.054V39.0021H320.58Z" fill="#F5F5F5"/>
<path d="M91.5174 41.0631L93.8031 39.0104H88.4285V41.0631H91.5174Z" fill="#F5F5F5"/>
<path d="M101.687 39.0104V41.0548H104.801L107.103 39.0104H101.687Z" fill="#F5F5F5"/>
<path d="M124.27 39.0104H115.111V41.0548H124.27V39.0104Z" fill="#F5F5F5"/>
<path d="M200.434 39.0104H191.647V41.0548H200.434V39.0104Z" fill="#F5F5F5"/>
<path d="M165.429 39.0104C166.319 39.7936 167.291 40.479 168.327 41.0548H180.294V39.0104H165.429Z" fill="#F5F5F5"/>
<path d="M265.981 39.0021H249.6V41.0466H264.366C264.499 40.9224 264.639 40.7983 264.772 40.6575C265.249 40.1636 265.655 39.6066 265.981 39.0021Z" fill="#F5F5F5"/>
<path d="M248.607 39.0021H239.837V41.0466H248.607V39.0021Z" fill="#F5F5F5"/>
<path d="M131.674 39.0104C132.477 39.7828 133.36 40.4681 134.307 41.0548H151.011C151.958 40.4681 152.841 39.7828 153.644 39.0104H131.674Z" fill="#F5F5F5"/>
<path d="M211.042 39.0104C211.842 39.7798 212.719 40.4649 213.659 41.0548H230.388C231.331 40.4631 232.211 39.7752 233.013 39.0021L211.042 39.0104Z" fill="#F5F5F5"/>
<path d="M269.898 39.0021V41.0466H273.012L275.297 39.0021H269.898Z" fill="#F5F5F5"/>
<path d="M299.198 39.0021H290.461V41.0466H299.198V39.0021Z" fill="#F5F5F5"/>
<path d="M310.054 41.7335H301.317V43.6787H310.054V41.7335Z" fill="#F5F5F5"/>
<path d="M323.677 41.7335L325.996 43.778H326.054V41.7335H323.677Z" fill="#F5F5F5"/>
<path d="M88.4285 41.7501V43.7946H88.4699L90.7473 41.7501H88.4285Z" fill="#F5F5F5"/>
<path d="M101.687 41.7501V43.7946H101.728L104.031 41.7501H101.687Z" fill="#F5F5F5"/>
<path d="M124.27 41.7501H115.111V43.687H124.27V41.7501Z" fill="#F5F5F5"/>
<path d="M200.434 41.7418H191.647V43.3476H200.434V41.7418Z" fill="#F5F5F5"/>
<path d="M177.66 43.3476H180.294V41.7418H169.693C172.204 42.8383 174.92 43.3857 177.66 43.3476Z" fill="#F5F5F5"/>
<path d="M248.607 41.7418H239.837V43.3559H248.607V41.7418Z" fill="#F5F5F5"/>
<path d="M249.6 43.3476H258.486C260.301 43.3745 262.075 42.8077 263.538 41.7335H249.6V43.3476Z" fill="#F5F5F5"/>
<path d="M142.638 43.4552C145.12 43.4578 147.567 42.8705 149.777 41.7418H135.508C137.715 42.8696 140.159 43.4568 142.638 43.4552Z" fill="#F5F5F5"/>
<path d="M222.032 43.4552C224.516 43.456 226.965 42.8688 229.179 41.7418H214.885C217.099 42.8688 219.548 43.456 222.032 43.4552Z" fill="#F5F5F5"/>
<path d="M299.198 41.7335H290.461V43.6787H299.198V41.7335Z" fill="#F5F5F5"/>
<path d="M269.898 41.7335V43.7863H269.956L272.242 41.7335H269.898Z" fill="#F5F5F5"/>
<path d="M313.988 32.3803L313.202 31.685L312.464 32.3803H301.79V18.9464L309.583 11.8943V24.8315L323.114 12.4406H333.739L318.94 26.5863L325.309 32.3803H313.988Z" fill="#F5F5F5"/>
<path d="M115.583 32.3803V30.6504L113.645 32.3803H102.159V30.7083L100.296 32.3803H88.8923V32.3472L111.567 11.8364V22.4643L123.807 11.8281V32.3803H115.583Z" fill="#F5F5F5"/>
<path d="M192.12 32.3803V20.0142H183.913L191.689 13.0282H209.395L201.618 20.0142H199.962V32.3803H192.12Z" fill="#F5F5F5"/>
<path d="M161.627 32.3803C161.175 30.9227 160.951 29.4037 160.965 27.8775C160.934 25.8707 161.352 23.8823 162.189 22.0578C163.026 20.2333 164.26 18.6188 165.801 17.3324C169.021 14.4447 173.228 12.9038 177.553 13.0283H187.648L179.871 20.0142H178.29C175.844 19.9836 173.46 20.7864 171.532 22.2904C170.666 22.9392 169.965 23.782 169.485 24.7509C169.005 25.7198 168.758 26.7879 168.766 27.8692C168.714 29.5303 169.308 31.147 170.422 32.3803H161.627Z" fill="#F5F5F5"/>
<path d="M258.66 32.3804C258.625 31.8566 258.487 31.3448 258.255 30.8739C258.138 30.6374 257.958 30.4383 257.734 30.2993C257.51 30.1602 257.251 30.0869 256.988 30.0876H250.097V24.2936H256.996C257.28 24.3084 257.564 24.2588 257.827 24.1484C258.089 24.038 258.323 23.8698 258.511 23.6562C258.835 23.2093 258.977 22.656 258.909 22.1084C258.935 21.541 258.739 20.9859 258.362 20.5605C258.199 20.3637 257.992 20.2074 257.757 20.104C257.523 20.0006 257.268 19.9529 257.012 19.9646H248.135V32.3804H240.309V20.0556L248.209 13.0283H258.329C259.446 13.0049 260.555 13.2202 261.582 13.6598C262.609 14.0995 263.53 14.7534 264.283 15.5777C265.085 16.4043 265.709 17.3856 266.117 18.4615C266.526 19.5375 266.711 20.6855 266.66 21.8352C266.729 22.9975 266.44 24.1528 265.832 25.1461H265.94L265.857 25.2703V25.1627C265.319 25.958 264.622 26.6342 263.811 27.1492L263.199 27.5465L263.811 27.9438C264.572 28.5122 265.204 29.2342 265.666 30.0627C266.106 30.7706 266.401 31.5582 266.536 32.3804H258.66Z" fill="#F5F5F5"/>
<path d="M149.272 32.3803C150.195 31.1506 150.756 29.6883 150.895 28.1573C151.033 26.6264 150.742 25.0872 150.054 23.7123C149.366 22.3374 148.309 21.1811 147 20.373C145.692 19.5649 144.185 19.1368 142.647 19.1368C141.109 19.1368 139.601 19.5649 138.293 20.373C136.985 21.1811 135.927 22.3374 135.24 23.7123C134.552 25.0872 134.261 26.6264 134.399 28.1573C134.537 29.6883 135.099 31.1506 136.022 32.3803H128.129C127.345 30.0733 127.122 27.6127 127.479 25.2024C127.836 22.7922 128.763 20.5017 130.183 18.5209C131.602 16.5401 133.474 14.926 135.642 13.8126C137.81 12.6991 140.213 12.1183 142.651 12.1183C145.089 12.1183 147.491 12.6991 149.66 13.8126C151.828 14.926 153.7 16.5401 155.119 18.5209C156.539 20.5017 157.465 22.7922 157.823 25.2024C158.18 27.6127 157.957 30.0733 157.172 32.3803H149.272Z" fill="#F5F5F5"/>
<path d="M228.657 32.3803C229.705 30.9705 230.271 29.2612 230.272 27.5051C230.295 26.1849 230.002 24.8783 229.416 23.6945C228.831 22.5106 227.971 21.4839 226.908 20.7001C225.845 19.9162 224.609 19.3979 223.305 19.1885C222.001 18.9791 220.665 19.0847 219.41 19.4964C218.155 19.9081 217.016 20.6139 216.089 21.555C215.163 22.4962 214.475 23.6452 214.083 24.9062C213.691 26.1673 213.607 27.5037 213.837 28.8039C214.068 30.1041 214.606 31.3304 215.407 32.3803H207.515C206.971 30.8094 206.691 29.1592 206.687 27.4968C206.681 25.2712 207.161 23.0712 208.092 21.0495C209.023 19.0279 210.384 17.2332 212.079 15.79C213.774 14.3469 215.763 13.29 217.908 12.6928C220.053 12.0956 222.303 11.9724 224.5 12.3318C226.698 12.6912 228.79 13.5245 230.633 14.7738C232.476 16.0232 234.024 17.6586 235.171 19.5664C236.318 21.4743 237.035 23.6088 237.273 25.8216C237.511 28.0344 237.264 30.2725 236.549 32.3803H228.657Z" fill="#F5F5F5"/>
<path d="M290.933 32.3803V24.2107L281.807 32.3803H270.37V19.1616L278.163 12.1591V25.204L292.067 12.5978H298.726V32.3803H290.933Z" fill="#F5F5F5"/>
<path d="M332.572 12.9041L318.982 25.8993L318.253 26.5946L318.998 27.2733L324.1 31.9085H314.162L313.831 31.6188L313.193 31.056L312.572 31.6354L312.282 31.9085H302.27V19.1534L309.119 12.9455V25.891L310.692 24.4508L323.305 12.9041H332.58M310.063 10.8348L301.326 18.7395V32.8107H312.663L313.218 32.281L313.814 32.8107H326.062V32.3803L319.661 26.578L334.932 11.9688H322.973L322.866 12.0681L310.054 23.7638V10.8348H310.063Z" fill="#F5F5F5"/>
<path d="M123.334 12.8627V31.9002H116.055V29.6074L114.49 30.998L113.455 31.9085H102.631V29.6488L101.033 31.0642L100.08 31.8919H90.0765L111.095 12.8544V23.4492L112.627 22.1414L123.31 12.8627M112.03 10.7603L111.376 11.3562L88.4285 32.132V32.8521H100.478L101.687 31.7595V32.8521H113.827L115.111 31.7016V32.8521H124.279V10.8017L112.03 21.4296V10.7603Z" fill="#F5F5F5"/>
<path d="M208.169 13.5001L201.444 19.5424H199.49V31.9085H192.583V19.5424H185.13L191.863 13.5001H208.16M210.645 12.5565H191.507L191.399 12.6641L182.687 20.486H191.647V32.8521H200.409V20.486H201.776L210.595 12.5565H210.645Z" fill="#F5F5F5"/>
<path d="M177.553 13.5H186.422L179.706 19.5424H178.298C175.744 19.5142 173.256 20.3548 171.242 21.9262C170.331 22.6283 169.593 23.5298 169.085 24.5615C168.577 25.5932 168.312 26.7276 168.311 27.8775C168.277 29.3102 168.688 30.7183 169.487 31.9085H162.033C161.664 30.5943 161.482 29.2343 161.495 27.8692C161.465 25.9296 161.87 24.0078 162.679 22.2447C163.489 20.4817 164.683 18.922 166.174 17.68C169.297 14.853 173.399 13.3536 177.611 13.5M177.611 12.5647C173.172 12.4245 168.852 14.0054 165.553 16.9764C163.966 18.3097 162.696 19.9801 161.836 21.8659C160.977 23.7517 160.549 25.8055 160.584 27.8775C160.567 29.5652 160.833 31.2438 161.371 32.8438H171.59C170.838 32.2562 170.232 31.5014 169.823 30.6394C169.413 29.7773 169.21 28.8317 169.23 27.8775C169.228 26.8639 169.463 25.8638 169.914 24.956C170.365 24.0482 171.021 23.2576 171.83 22.6463C173.672 21.2144 175.948 20.4525 178.281 20.486H180.054L188.873 12.5647H177.553H177.611Z" fill="#F5F5F5"/>
<path d="M258.379 12.5565V13.5001C259.429 13.4783 260.472 13.6812 261.437 14.0952C262.403 14.5092 263.269 15.1247 263.977 15.9005C264.745 16.6809 265.343 17.6118 265.734 18.6346C266.124 19.6574 266.299 20.75 266.246 21.8435C266.323 22.9165 266.072 23.9874 265.525 24.9144C265.023 25.6529 264.375 26.281 263.621 26.7602L262.395 27.5879L263.629 28.3659C264.327 28.902 264.908 29.5752 265.335 30.3442C265.644 30.8386 265.876 31.3773 266.022 31.9417H259.099C259.037 31.4932 258.897 31.0591 258.685 30.6587C258.527 30.3558 258.289 30.1017 257.997 29.9237C257.706 29.7458 257.371 29.6508 257.029 29.6489H250.602V24.7488H257.037C257.388 24.7576 257.737 24.6878 258.058 24.5446C258.379 24.4014 258.664 24.1884 258.892 23.9211C259.3 23.3876 259.487 22.7178 259.414 22.0504C259.434 21.3553 259.185 20.6792 258.718 20.1632C258.513 19.9278 258.258 19.741 257.971 19.6165C257.685 19.4919 257.374 19.4327 257.062 19.4431H247.671V31.8589H240.772V20.2709L248.383 13.5001H258.321V12.5565M258.321 12.5565H248.027L239.837 19.8653V32.8522H248.607V20.4364H256.971C257.164 20.4209 257.357 20.4527 257.535 20.5292C257.712 20.6057 257.868 20.7244 257.989 20.8751C258.287 21.215 258.438 21.6578 258.412 22.1084C258.478 22.5429 258.377 22.9863 258.13 23.35C257.987 23.5132 257.807 23.6408 257.606 23.7226C257.405 23.8045 257.187 23.8385 256.971 23.8218H249.6V30.5677H256.971C257.155 30.5642 257.337 30.6149 257.493 30.7135C257.649 30.812 257.773 30.9542 257.849 31.1222C258.096 31.6713 258.223 32.2667 258.221 32.8687H267.099C267.016 31.7796 266.672 30.7264 266.097 29.7979C265.601 28.9085 264.92 28.1353 264.101 27.5299C264.966 26.9782 265.707 26.254 266.279 25.4027C266.906 24.3172 267.195 23.0691 267.107 21.8187C267.163 20.6118 266.971 19.4063 266.544 18.2762C266.117 17.146 265.463 16.115 264.623 15.2466C263.832 14.3821 262.866 13.6952 261.79 13.2315C260.713 12.7678 259.551 12.5377 258.379 12.5565H258.321Z" fill="#F5F5F5"/>
<path d="M142.638 12.6393C146.584 12.6503 150.365 14.2248 153.152 17.0177C155.938 19.8106 157.503 23.5939 157.503 27.5382C157.503 29.0348 157.274 30.5226 156.824 31.95H150.141C150.934 30.6151 151.352 29.0908 151.35 27.5382C151.424 26.3518 151.253 25.1629 150.849 24.0448C150.445 22.9268 149.817 21.9032 149.002 21.0371C148.187 20.1711 147.204 19.4809 146.112 19.0091C145.021 18.5373 143.844 18.294 142.655 18.294C141.465 18.294 140.289 18.5373 139.197 19.0091C138.106 19.4809 137.122 20.1711 136.307 21.0371C135.493 21.9032 134.864 22.9268 134.46 24.0448C134.057 25.1629 133.886 26.3518 133.959 27.5382C133.958 29.0881 134.376 30.6094 135.168 31.9417H128.485C128.033 30.5147 127.801 29.0269 127.798 27.5299C127.809 23.5857 129.384 19.8067 132.179 17.0216C134.973 14.2364 138.758 12.6724 142.704 12.6724M142.704 11.7371C140.164 11.7244 137.659 12.3265 135.403 13.492C133.146 14.6575 131.205 16.3516 129.746 18.4297C128.287 20.5078 127.353 22.908 127.024 25.4253C126.695 27.9426 126.98 30.5022 127.856 32.8853H137.09C136.037 31.7851 135.33 30.4 135.058 28.902C134.785 27.404 134.959 25.859 135.558 24.4588C136.156 23.0587 137.153 21.8651 138.424 21.0262C139.695 20.1873 141.185 19.7401 142.709 19.7401C144.232 19.7401 145.722 20.1873 146.993 21.0262C148.264 21.8651 149.261 23.0587 149.86 24.4588C150.458 25.859 150.632 27.404 150.36 28.902C150.087 30.4 149.381 31.7851 148.328 32.8853H157.561C158.437 30.5015 158.722 27.9412 158.393 25.4233C158.063 22.9053 157.129 20.5045 155.669 18.4263C154.209 16.348 152.267 14.654 150.009 13.4891C147.751 12.3242 145.245 11.7231 142.704 11.7371Z" fill="#F5F5F5"/>
<path d="M222.032 12.6393C225.978 12.6502 229.759 14.2248 232.545 17.0177C235.332 19.8106 236.897 23.5939 236.897 27.5382C236.894 29.0352 236.662 30.523 236.21 31.95H229.535C230.216 30.7959 230.622 29.5001 230.72 28.1637C230.819 26.8272 230.607 25.4861 230.102 24.2447C229.597 23.0033 228.812 21.8952 227.809 21.0066C226.805 20.118 225.61 19.4729 224.316 19.1215C223.022 18.7702 221.665 18.722 220.349 18.9808C219.034 19.2396 217.796 19.7984 216.732 20.6137C215.668 21.429 214.806 22.4787 214.214 23.6812C213.623 24.8837 213.316 26.2064 213.32 27.5465C213.319 29.0963 213.737 30.6177 214.529 31.95H207.862C207.41 30.523 207.178 29.0352 207.175 27.5382C207.186 23.594 208.761 19.815 211.556 17.0298C214.35 14.2447 218.135 12.6807 222.082 12.6807M222.082 11.7454C219.545 11.7428 217.045 12.3514 214.794 13.5195C212.542 14.6877 210.606 16.3809 209.148 18.4559C207.69 20.5309 206.754 22.9264 206.42 25.4396C206.085 27.9528 206.361 30.5097 207.225 32.8936H216.458C215.409 31.7935 214.707 30.4099 214.437 28.9143C214.167 27.4187 214.342 25.8769 214.941 24.4799C215.54 23.083 216.535 21.8924 217.805 21.0557C219.074 20.219 220.561 19.773 222.082 19.773C223.602 19.773 225.089 20.219 226.358 21.0557C227.628 21.8924 228.623 23.083 229.222 24.4799C229.821 25.8769 229.996 27.4187 229.726 28.9143C229.456 30.4099 228.754 31.7935 227.705 32.8936H236.938C237.814 30.5098 238.1 27.9495 237.77 25.4315C237.44 22.9136 236.506 20.5128 235.046 18.4345C233.586 16.3563 231.644 14.6623 229.386 13.4974C227.128 12.3325 224.622 11.7313 222.082 11.7454Z" fill="#F5F5F5"/>
<path d="M298.262 13.0697V31.9086H291.405V23.1761L289.848 24.5667L281.641 31.9086H270.801V19.3686L277.691 13.2435V26.2635L279.264 24.8398L292.249 13.0697H298.262ZM278.627 11.108L269.898 18.9548V32.8522H281.989L290.461 25.262V32.8522H299.197V12.1592H291.885L278.635 24.1694V11.108H278.627Z" fill="#F5F5F5"/>
<path d="M51.4191 65.0918L51.5019 65.009H51.3694L51.4191 65.0918Z" fill="#F5F5F5"/>
<path d="M81.5053 33.5309H81.4968V33.5393L81.5053 33.5309Z" fill="#F5F5F5"/>
<path d="M0.645996 33.5309L2.59212 35.5836H32.8688L32.4382 34.8966H60.4209L60.0979 35.5836H79.5426L81.497 33.5309" fill="#F5F5F5"/>
<path d="M3.23804 36.2706L5.18416 38.3233H34.583L34.1524 37.6363H59.1207L58.7894 38.3233H76.9339L78.8883 36.2706" fill="#F5F5F5"/>
<path d="M5.83008 39.0104L7.7762 41.0631H36.3055L35.8749 40.3761H57.8122L57.4892 41.0631H74.3252L76.2796 39.0104" fill="#F5F5F5"/>
<path d="M8.42212 41.7419L10.36 43.7946H38.028L37.5974 43.1159H56.512L56.1808 43.7946H71.7166L73.671 41.7419" fill="#F5F5F5"/>
<path d="M11.0142 44.4816L12.952 46.5343H39.7505L39.3199 45.8473H55.2035L54.8806 46.5343H69.1079L71.0623 44.4816" fill="#F5F5F5"/>
<path d="M13.6062 47.2213L15.544 49.2741H41.473L41.0424 48.5871H53.9033L53.5721 49.2741H66.4993L68.4537 47.2213" fill="#F5F5F5"/>
<path d="M16.1902 49.9528L18.1363 52.0138H43.1957L42.7651 51.3268H52.5951L52.2721 52.0138H63.8909L65.8453 49.9528" fill="#F5F5F5"/>
<path d="M31.461 52.6925H18.7822L20.7283 54.7452H44.9182L44.4876 54.0582H51.2949L51.0216 54.6376H61.3899L63.2366 52.6925" fill="#F5F5F5"/>
<path d="M21.3743 55.4323L23.3204 57.485H46.6324L46.2101 56.798H59.3278L60.6279 55.4323" fill="#F5F5F5"/>
<path d="M23.9663 58.172L25.9124 60.2248H48.3549L47.9243 59.5378H56.7191L58.0193 58.172" fill="#F5F5F5"/>
<path d="M26.5583 60.9035L28.4962 62.9563H50.0774L49.6468 62.2775H54.1105L55.4106 60.9035" fill="#F5F5F5"/>
<path d="M29.1504 63.6432L31.0882 65.696H50.8476L51.419 65.0918L51.3693 65.009H51.5018L52.802 63.6432" fill="#F5F5F5"/>
<path d="M1.09326 32.3803L31.2954 0.471771H50.9471L30.8813 32.3803H1.09326Z" fill="#F5F5F5"/>
<path d="M61.6962 32.3803L51.7585 11.5301H61.1993L81.0663 32.3803H61.6962Z" fill="#F5F5F5"/>
<path d="M50.1023 0.935322L30.6411 31.9085H2.178L31.4692 0.935322H50.1023ZM51.7585 0H31.0551L0 32.8521H31.1462L51.7999 0H51.7585Z" fill="#F5F5F5"/>
<path d="M61.0005 12.0019L79.9731 31.8672H61.9943L52.5038 12.0019H61.0005ZM61.398 11.0583H51.0215L61.398 32.8521H82.1594L61.398 11.0583Z" fill="#F5F5F5"/>
</svg>
