<svg width="116" height="92" viewBox="0 0 116 92" fill="none" xmlns="http://www.w3.org/2000/svg">
<path d="M72.0066 91.1539L72.1226 91.038H71.937L72.0066 91.1539Z" fill="#F5F5F5"/>
<path d="M114.139 46.9563H114.127V46.9681L114.139 46.9563Z" fill="#F5F5F5"/>
<path d="M0.904541 46.9563L3.62987 49.8309H46.029L45.426 48.8689H84.6127L84.1604 49.8309H111.391L114.127 46.9563" fill="#F5F5F5"/>
<path d="M4.53442 50.793L7.25975 53.6676H48.4296L47.8266 52.7055H82.7919L82.328 53.6676H107.737L110.474 50.793" fill="#F5F5F5"/>
<path d="M8.16431 54.6298L10.8896 57.5044H50.8418L50.2387 56.5423H80.9596L80.5073 57.5044H104.084L106.821 54.6298" fill="#F5F5F5"/>
<path d="M11.7942 58.4548L14.5079 61.3295H53.254L52.6509 60.379H79.1388L78.6749 61.3295H100.431L103.168 58.4548" fill="#F5F5F5"/>
<path d="M15.4241 62.2915L18.1378 65.1661H55.6662L55.0631 64.2041H77.3064L76.8541 65.1661H96.778L99.5149 62.2915" fill="#F5F5F5"/>
<path d="M19.054 66.1283L21.7677 69.0029H58.0783L57.4753 68.0409H75.4856L75.0218 69.0029H93.1249L95.8618 66.1283" fill="#F5F5F5"/>
<path d="M22.6724 69.9534L25.3977 72.8396H60.4906L59.8876 71.8775H73.6534L73.2011 72.8396H89.4719L92.2088 69.9534" fill="#F5F5F5"/>
<path d="M44.0575 73.79H26.3022L29.0276 76.6647H62.9028L62.2998 75.7026H71.8326L71.4499 76.514H85.9695L88.5557 73.79" fill="#F5F5F5"/>
<path d="M29.9321 77.6268L32.6575 80.5015H65.3034L64.712 79.5394H83.0818L84.9026 77.6268" fill="#F5F5F5"/>
<path d="M33.562 81.4635L36.2873 84.3381H67.7156L67.1125 83.3761H79.4287L81.2495 81.4635" fill="#F5F5F5"/>
<path d="M37.1919 85.2887L39.9056 88.1633H70.1278L69.5247 87.2128H75.7756L77.5963 85.2887" fill="#F5F5F5"/>
<path d="M40.8219 89.1254L43.5356 92H71.2064L72.0066 91.1538L71.937 91.0379H72.1226L73.9433 89.1254" fill="#F5F5F5"/>
<path d="M1.53076 45.345L43.8255 0.660645H71.3456L43.2457 45.345H1.53076Z" fill="#F5F5F5"/>
<path d="M86.3986 45.345L72.4821 16.1466H85.7028L113.524 45.345H86.3986Z" fill="#F5F5F5"/>
<path d="M70.1627 1.30981L42.9094 44.6844H3.05005L44.0691 1.30981H70.1627ZM72.4821 0H43.4893L0 46.0058H43.6168L72.5401 0H72.4821Z" fill="#F5F5F5"/>
<path d="M85.4245 16.8074L111.994 44.6264H86.8162L73.5258 16.8074H85.4245ZM85.9812 15.486H71.45L85.9812 46.0058H115.055L85.9812 15.486Z" fill="#F5F5F5"/>
</svg>
