<svg width="1525" height="1080" viewBox="0 0 1525 1080" fill="none" xmlns="http://www.w3.org/2000/svg">
<path d="M14.146 733.947L56.7645 778.879H719.799L710.369 763.842H1323.17L1316.1 778.879H1741.92L1784.72 733.947" fill="#F5F5F5"/>
<path d="M70.9099 793.916L113.528 838.848H757.34L747.909 823.81H1294.7L1287.44 838.848H1684.79L1727.59 793.916" fill="#F5F5F5"/>
<path d="M127.674 853.887L170.292 898.819H795.061L785.631 883.781H1266.04L1258.97 898.819H1627.66L1670.46 853.887" fill="#F5F5F5"/>
<path d="M184.438 913.674L226.876 958.606H832.784L823.353 943.75H1237.57L1230.31 958.606H1570.54L1613.34 913.674" fill="#F5F5F5"/>
<path d="M241.202 973.643L283.64 1018.58H870.505L861.075 1003.54H1208.91L1201.84 1018.58H1513.41L1556.21 973.643" fill="#F5F5F5"/>
<path d="M297.966 1033.61L340.403 1078.55H908.227L898.797 1063.51H1180.44L1173.19 1078.55H1456.28L1499.08 1033.61" fill="#F5F5F5"/>
<path d="M23.9388 708.763L685.342 10.3262H1115.7L676.274 708.763H23.9388Z" fill="#F5F5F5"/>
<path d="M1351.1 708.763L1133.47 252.378H1340.22L1775.29 708.763H1351.1Z" fill="#F5F5F5"/>
<path d="M1097.2 20.473L671.015 698.436H47.6964L689.15 20.473H1097.2ZM1133.47 0H680.082L0 719.091H682.077L1134.38 0H1133.47Z" fill="#F5F5F5"/>
<path d="M1335.86 262.706L1751.35 697.531H1357.63L1149.79 262.706H1335.86ZM1344.57 242.052H1117.33L1344.57 719.091H1799.23L1344.57 242.052Z" fill="#F5F5F5"/>
</svg>
